<svg width="92" height="92" viewBox="0 0 92 92" fill="none" xmlns="http://www.w3.org/2000/svg">
<circle cx="46" cy="46" r="42" fill="white" stroke="#ECF9FF" stroke-width="8"/>
<path fill-rule="evenodd" clip-rule="evenodd" d="M46 8C66.9864 8 84 25.0136 84 46C84 66.9864 66.9864 84 46 84C25.0136 84 8 66.9864 8 46C8 25.0136 25.0136 8 46 8ZM42.5455 59.8182C42.5455 60.7344 42.9094 61.6131 43.5573 62.2609C44.2051 62.9088 45.0838 63.2727 46 63.2727C46.9162 63.2727 47.7949 62.9088 48.4427 62.2609C49.0906 61.6131 49.4545 60.7344 49.4545 59.8182V49.4545H59.8182C60.7344 49.4545 61.6131 49.0906 62.2609 48.4427C62.9088 47.7949 63.2727 46.9162 63.2727 46C63.2727 45.0838 62.9088 44.2051 62.2609 43.5573C61.6131 42.9094 60.7344 42.5455 59.8182 42.5455H49.4545V32.1818C49.4545 31.2656 49.0906 30.3869 48.4427 29.7391C47.7949 29.0912 46.9162 28.7273 46 28.7273C45.0838 28.7273 44.2051 29.0912 43.5573 29.7391C42.9094 30.3869 42.5455 31.2656 42.5455 32.1818V42.5455H32.1818C31.2656 42.5455 30.3869 42.9094 29.7391 43.5573C29.0912 44.2051 28.7273 45.0838 28.7273 46C28.7273 46.9162 29.0912 47.7949 29.7391 48.4427C30.3869 49.0906 31.2656 49.4545 32.1818 49.4545H42.5455V59.8182Z" fill="url(#paint0_linear_35_27)"/>
<defs>
<linearGradient id="paint0_linear_35_27" x1="84" y1="22.6154" x2="5.18597" y2="24.5669" gradientUnits="userSpaceOnUse">
<stop stop-color="#0A92CF"/>
<stop offset="1" stop-color="#8DCBCB"/>
</linearGradient>
</defs>
</svg>
