<svg width="428" height="926" viewBox="0 0 428 926" fill="none" xmlns="http://www.w3.org/2000/svg">
  <g clip-path="url(#clip0_38_386)">
    <rect width="428" height="926" fill="white"/>
    <rect y="-2" width="430" height="928" fill="url(#paint0_linear_38_386)"/>
    <g clip-path="url(#clip1_38_386)">
      <path d="M349.499 54.1647C348.44 54.4072 347.356 54.5249 346.269 54.5155C346.056 53.8109 345.822 53.081 345.559 52.3278L345.213 51.3363C346.277 51.4537 347.374 51.4111 348.465 51.199L345.937 43.9465C345.529 42.776 345.602 41.4914 346.141 40.3752C346.681 39.259 347.641 38.4026 348.811 37.9946L356.064 35.466C355.261 33.9175 354.098 32.5842 352.673 31.578C351.248 30.5719 349.603 29.9222 347.875 29.6835C346.147 29.4449 344.387 29.6242 342.743 30.2064C341.098 30.7886 339.618 31.7568 338.425 33.0296C337.857 32.1485 337.153 31.3626 336.339 30.7011C337.915 29.0841 339.857 27.8714 342.002 27.1661C344.146 26.4609 346.43 26.2838 348.657 26.6501C350.885 27.0164 352.991 27.9152 354.797 29.27C356.603 30.6248 358.055 32.3957 359.03 34.432L363.522 32.8656C364.693 32.4575 365.977 32.5311 367.094 33.0702C368.21 33.6093 369.066 34.5697 369.474 35.7402L374.603 50.4511C375.011 51.6216 374.938 52.9062 374.399 54.0224C373.86 55.1387 372.899 55.995 371.729 56.4031L357.018 61.532C355.847 61.9401 354.563 61.8665 353.446 61.3274C352.33 60.7883 351.474 59.8279 351.066 58.6574L349.499 54.1647ZM360.055 37.3742C360.762 40.4759 360.393 43.7256 359.01 46.5901C357.626 49.4546 355.31 51.7639 352.442 53.1389L354.008 57.6317C354.144 58.0218 354.429 58.342 354.801 58.5216C355.174 58.7013 355.602 58.7259 355.992 58.5898L370.703 53.4609C371.093 53.3249 371.413 53.0394 371.593 52.6674C371.773 52.2953 371.797 51.8671 371.661 51.4769L366.532 36.766C366.396 36.3758 366.111 36.0557 365.739 35.876C365.366 35.6963 364.938 35.6718 364.548 35.8078L360.055 37.3742ZM357.09 38.4082L349.837 40.9367C349.447 41.0728 349.127 41.3582 348.947 41.7303C348.767 42.1024 348.743 42.5306 348.879 42.9207L351.408 50.1732C353.497 49.0879 355.18 47.3556 356.204 45.2351C357.228 43.1146 357.539 40.7198 357.09 38.4082V38.4082ZM339.512 46.3879C338.807 45.3599 337.91 44.3956 336.746 43.8213C337.676 42.022 337.829 39.6194 336.975 37.1715C336.26 35.1208 335.354 33.8562 334.211 32.9909C333.709 32.6223 333.168 32.3095 332.599 32.0581C332.378 31.9565 332.157 31.8577 331.934 31.7618C331.696 31.6566 331.478 31.5611 331.189 31.4212C330.593 31.1337 330.42 30.7981 330.356 30.6128C330.32 30.5096 330.301 30.4014 330.3 30.2923C330.333 29.9545 330.255 29.6151 330.078 29.3258C329.9 29.0364 329.633 28.813 329.317 28.6894C329.001 28.5658 328.653 28.5488 328.326 28.641C328 28.7333 327.712 28.9296 327.507 29.2003L327.502 29.2053L327.496 29.2143L327.475 29.2412L327.407 29.3308C327.076 29.7994 326.768 30.2845 326.485 30.7841C325.976 31.6908 325.353 32.9873 325.073 34.3717C324.812 35.5298 324.691 36.7153 324.714 37.9025C324.729 39.0818 324.872 40.3155 325.206 41.2747C326.06 43.7226 327.672 45.5068 329.521 46.3436C328.966 47.514 328.862 48.8271 328.95 50.0734C329.119 52.4962 330.073 55.2324 330.81 57.3479L330.848 57.4567C332.959 63.5117 335.346 66.7122 337.374 68.4039C338.392 69.2502 339.304 69.7077 340.017 69.9472C340.398 70.0764 340.793 70.1603 341.194 70.1972C341.419 70.2004 341.644 70.1732 341.861 70.1161C342.109 70.0299 342.435 69.7643 342.435 69.7643C342.726 69.4864 342.983 69.1753 343.201 68.8373C343.608 68.207 344.044 67.2796 344.312 65.9851C344.85 63.4018 344.728 59.4086 342.617 53.3536L342.58 53.2476C341.841 51.1293 340.888 48.396 339.512 46.3879ZM332.342 47.6668C332.557 47.2154 332.923 46.834 333.655 46.5786C334.391 46.3221 334.912 46.3978 335.359 46.6114C335.86 46.8558 336.392 47.3501 336.942 48.1515C338.058 49.7789 338.892 52.1345 339.675 54.3793C341.667 60.0931 341.647 63.4921 341.26 65.3529C341.112 66.0644 340.912 66.5599 340.736 66.8885C340.242 66.6617 339.783 66.3665 339.371 66.0115C337.91 64.7919 335.782 62.1447 333.79 56.4309C333.008 54.186 332.197 51.8223 332.058 49.8543C331.992 48.8876 332.1 48.1667 332.341 47.6638L332.342 47.6668ZM332.629 43.6364C331.497 44.0313 329.248 43.4029 328.149 40.2489C327.971 39.7399 327.843 38.8804 327.831 37.8617C327.81 36.9034 327.907 35.9461 328.121 35.0118C328.226 34.49 328.412 33.9534 328.637 33.4428C328.965 33.731 329.359 33.9995 329.835 34.2295C330.124 34.3694 330.494 34.5309 330.81 34.6714L331.294 34.8855C331.708 35.0779 332.037 35.2566 332.33 35.4812C332.867 35.8848 333.466 36.5703 334.033 38.1973C335.133 41.3514 333.762 43.2415 332.629 43.6364Z" fill="#F0F0F0" fill-opacity="0.53"/>
    </g>
    <g clip-path="url(#clip2_38_386)">
      <path d="M49.1933 875.968C50.2527 875.726 51.3368 875.608 52.4236 875.618C52.6363 876.322 52.871 877.052 53.1336 877.805L53.4792 878.797C52.4154 878.679 51.3182 878.722 50.2273 878.934L52.7558 886.187C53.1639 887.357 53.0903 888.642 52.5512 889.758C52.0122 890.874 51.0517 891.73 49.8813 892.139L42.6288 894.667C43.4318 896.216 44.5946 897.549 46.0195 898.555C47.4444 899.561 49.0899 900.211 50.8178 900.45C52.5457 900.688 54.3057 900.509 55.95 899.927C57.5943 899.344 59.075 898.376 60.2677 897.103C60.8359 897.985 61.5398 898.77 62.3533 899.432C60.7779 901.049 58.8353 902.262 56.6907 902.967C54.5462 903.672 52.263 903.849 50.0353 903.483C47.8077 903.117 45.7014 902.218 43.8956 900.863C42.0897 899.508 40.6378 897.737 39.663 895.701L35.1703 897.268C33.9999 897.676 32.7152 897.602 31.599 897.063C30.4828 896.524 29.6265 895.563 29.2184 894.393L24.0894 879.682C23.6813 878.512 23.7549 877.227 24.294 876.111C24.8331 874.994 25.7935 874.138 26.964 873.73L41.6749 868.601C42.8454 868.193 44.1301 868.267 45.2463 868.806C46.3625 869.345 47.2188 870.305 47.6269 871.476L49.1933 875.968ZM38.6373 892.759C37.9308 889.657 38.2995 886.408 39.683 883.543C41.0665 880.678 43.3825 878.369 46.2511 876.994L44.6847 872.501C44.5487 872.111 44.2632 871.791 43.8912 871.611C43.5191 871.432 43.0909 871.407 42.7007 871.543L27.9898 876.672C27.5996 876.808 27.2795 877.094 27.0998 877.466C26.9201 877.838 26.8956 878.266 27.0316 878.656L32.1606 893.367C32.2966 893.757 32.582 894.077 32.9541 894.257C33.3262 894.437 33.7544 894.461 34.1445 894.325L38.6373 892.759ZM41.603 891.725L48.8555 889.196C49.2456 889.06 49.5658 888.775 49.7455 888.403C49.9252 888.031 49.9497 887.603 49.8137 887.212L47.2851 879.96C45.1953 881.045 43.5127 882.778 42.4886 884.898C41.4645 887.018 41.1538 889.413 41.603 891.725V891.725ZM59.1808 883.745C59.8857 884.773 60.7828 885.737 61.9466 886.312C61.0164 888.111 60.8641 890.514 61.7176 892.962C62.4326 895.012 63.3388 896.277 64.4819 897.142C64.9838 897.511 65.5244 897.824 66.094 898.075C66.3142 898.177 66.5357 898.275 66.7583 898.371C66.9963 898.476 67.2144 898.572 67.504 898.712C68.0992 898.999 68.2724 899.335 68.337 899.52C68.3724 899.624 68.3912 899.732 68.3926 899.841C68.3595 900.179 68.4377 900.518 68.6151 900.807C68.7926 901.097 69.0597 901.32 69.3758 901.444C69.6919 901.567 70.0398 901.584 70.3664 901.492C70.6931 901.4 70.9807 901.203 71.1855 900.933L71.1904 900.928L71.1971 900.919L71.2175 900.892L71.2852 900.802C71.6168 900.334 71.9245 899.849 72.2073 899.349C72.7162 898.442 73.3399 897.146 73.6195 895.761C73.8811 894.603 74.0018 893.418 73.979 892.231C73.9638 891.051 73.8207 889.818 73.4863 888.858C72.6329 886.411 71.0209 884.626 69.1716 883.789C69.7271 882.619 69.8303 881.306 69.7422 880.06C69.574 877.637 68.62 874.901 67.8824 872.785L67.8445 872.676C65.7334 866.621 63.3472 863.421 61.3186 861.729C60.3009 860.883 59.389 860.425 58.6752 860.186C58.2944 860.057 57.8996 859.973 57.4991 859.936C57.2738 859.933 57.0491 859.96 56.8312 860.017C56.584 860.103 56.2575 860.369 56.2575 860.369C55.9668 860.647 55.7098 860.958 55.4918 861.296C55.0846 861.926 54.6489 862.853 54.3809 864.148C53.8429 866.731 53.9647 870.725 56.0757 876.78L56.1127 876.885C56.8512 879.004 57.8042 881.737 59.1808 883.745ZM66.3509 882.466C66.1354 882.918 65.7701 883.299 65.0375 883.555C64.3019 883.811 63.7806 883.735 63.3332 883.522C62.8323 883.277 62.3002 882.783 61.7502 881.982C60.6351 880.354 59.8006 877.999 59.0179 875.754C57.0258 870.04 57.0452 866.641 57.4326 864.78C57.5805 864.069 57.7806 863.573 57.9565 863.245C58.4504 863.471 58.9099 863.767 59.3215 864.122C60.7828 865.341 62.9102 867.988 64.9023 873.702C65.685 875.947 66.4959 878.311 66.6342 880.279C66.7007 881.246 66.5924 881.966 66.3519 882.469L66.3509 882.466ZM66.0633 886.497C67.196 886.102 69.4445 886.73 70.5441 889.884C70.7216 890.393 70.8497 891.253 70.8617 892.271C70.8831 893.23 70.7856 894.187 70.5717 895.121C70.4665 895.643 70.2807 896.18 70.0561 896.69C69.728 896.402 69.3341 896.134 68.8579 895.904C68.5682 895.764 68.1985 895.602 67.8822 895.462L67.3984 895.248C66.9848 895.055 66.6552 894.876 66.3624 894.652C65.8257 894.248 65.227 893.563 64.6598 891.936C63.5601 888.782 64.9305 886.892 66.0633 886.497Z" fill="#F0F0F0" fill-opacity="0.53"/>
    </g>
    <g clip-path="url(#clip3_38_386)">
      <path d="M377.636 555.971C378.696 555.728 379.78 555.611 380.867 555.62C381.079 556.325 381.314 557.055 381.577 557.808L381.922 558.799C380.858 558.682 379.761 558.725 378.67 558.937L381.199 566.189C381.607 567.36 381.533 568.644 380.994 569.76C380.455 570.877 379.495 571.733 378.324 572.141L371.072 574.67C371.875 576.218 373.038 577.551 374.462 578.558C375.887 579.564 377.533 580.213 379.261 580.452C380.989 580.691 382.749 580.511 384.393 579.929C386.037 579.347 387.518 578.379 388.711 577.106C389.279 577.987 389.983 578.773 390.796 579.434C389.221 581.051 387.278 582.264 385.134 582.969C382.989 583.675 380.706 583.852 378.478 583.485C376.251 583.119 374.144 582.22 372.339 580.866C370.533 579.511 369.081 577.74 368.106 575.704L363.613 577.27C362.443 577.678 361.158 577.604 360.042 577.065C358.926 576.526 358.069 575.566 357.661 574.395L352.532 559.684C352.124 558.514 352.198 557.229 352.737 556.113C353.276 554.997 354.236 554.141 355.407 553.732L370.118 548.604C371.288 548.195 372.573 548.269 373.689 548.808C374.805 549.347 375.662 550.308 376.07 551.478L377.636 555.971ZM367.08 572.761C366.374 569.66 366.743 566.41 368.126 563.545C369.509 560.681 371.825 558.372 374.694 556.997L373.128 552.504C372.992 552.114 372.706 551.794 372.334 551.614C371.962 551.434 371.534 551.41 371.144 551.546L356.433 556.675C356.043 556.811 355.722 557.096 355.543 557.468C355.363 557.84 355.339 558.268 355.475 558.659L360.604 573.37C360.74 573.76 361.025 574.08 361.397 574.26C361.769 574.439 362.197 574.464 362.588 574.328L367.08 572.761ZM370.046 571.727L377.298 569.199C377.689 569.063 378.009 568.777 378.188 568.405C378.368 568.033 378.393 567.605 378.257 567.215L375.728 559.962C373.638 561.048 371.956 562.78 370.932 564.9C369.907 567.021 369.597 569.416 370.046 571.727V571.727ZM387.624 563.748C388.329 564.776 389.226 565.74 390.39 566.314C389.459 568.114 389.307 570.516 390.161 572.964C390.876 575.015 391.782 576.279 392.925 577.145C393.427 577.513 393.967 577.826 394.537 578.077C394.757 578.179 394.979 578.278 395.201 578.374C395.439 578.479 395.657 578.574 395.947 578.714C396.542 579.002 396.715 579.337 396.78 579.523C396.815 579.626 396.834 579.734 396.836 579.843C396.802 580.181 396.881 580.52 397.058 580.81C397.236 581.099 397.503 581.323 397.819 581.446C398.135 581.57 398.483 581.587 398.809 581.495C399.136 581.402 399.424 581.206 399.628 580.935L399.633 580.93L399.64 580.921L399.66 580.894L399.728 580.805C400.06 580.336 400.368 579.851 400.65 579.351C401.159 578.445 401.783 577.148 402.062 575.764C402.324 574.606 402.445 573.42 402.422 572.233C402.407 571.054 402.264 569.82 401.929 568.861C401.076 566.413 399.464 564.629 397.615 563.792C398.17 562.622 398.273 561.309 398.185 560.062C398.017 557.639 397.063 554.903 396.325 552.788L396.287 552.679C394.176 546.624 391.79 543.423 389.762 541.732C388.744 540.885 387.832 540.428 387.118 540.188C386.737 540.059 386.343 539.975 385.942 539.938C385.717 539.935 385.492 539.962 385.274 540.019C385.027 540.106 384.701 540.371 384.701 540.371C384.41 540.649 384.153 540.96 383.935 541.298C383.528 541.929 383.092 542.856 382.824 544.15C382.286 546.734 382.408 550.727 384.519 556.782L384.556 556.888C385.294 559.006 386.247 561.74 387.624 563.748ZM394.794 562.469C394.578 562.92 394.213 563.302 393.48 563.557C392.745 563.813 392.224 563.738 391.776 563.524C391.275 563.28 390.743 562.786 390.193 561.984C389.078 560.357 388.244 558.001 387.461 555.756C385.469 550.042 385.488 546.644 385.876 544.783C386.023 544.071 386.224 543.576 386.399 543.247C386.893 543.474 387.353 543.769 387.764 544.124C389.226 545.344 391.353 547.991 393.345 553.705C394.128 555.95 394.939 558.313 395.077 560.281C395.144 561.248 395.035 561.969 394.795 562.472L394.794 562.469ZM394.506 566.499C395.639 566.104 397.887 566.733 398.987 569.887C399.165 570.396 399.293 571.255 399.305 572.274C399.326 573.232 399.229 574.189 399.015 575.124C398.909 575.646 398.724 576.182 398.499 576.693C398.171 576.405 397.777 576.136 397.301 575.906C397.011 575.766 396.641 575.605 396.325 575.464L395.841 575.25C395.428 575.058 395.098 574.879 394.805 574.654C394.269 574.251 393.67 573.565 393.103 571.938C392.003 568.784 393.373 566.894 394.506 566.499Z" fill="#F0F0F0" fill-opacity="0.53"/>
    </g>
    <g clip-path="url(#clip4_38_386)">
      <path d="M82.7147 53.6472C82.219 53.4102 81.7527 53.1161 81.3254 52.7708C81.4626 52.425 81.5991 52.0622 81.7319 51.6814L81.9066 51.1801C82.291 51.561 82.7388 51.889 83.2374 52.1479L84.5157 48.4815C84.722 47.8898 85.1549 47.4042 85.7192 47.1317C86.2835 46.8592 86.9329 46.822 87.5247 47.0283L91.1911 48.3066C91.3598 47.441 91.3185 46.5476 91.0705 45.7014C90.8225 44.8551 90.3752 44.0807 89.766 43.4431C89.1568 42.8055 88.4036 42.3233 87.5695 42.0371C86.7355 41.7508 85.8449 41.6688 84.9726 41.7979C85.0245 41.2704 84.9928 40.738 84.8786 40.2204C86.0107 40.0753 87.161 40.2056 88.2318 40.6004C89.3027 40.9952 90.2623 41.6427 91.0293 42.4879C91.7962 43.3331 92.3477 44.351 92.6369 45.4551C92.9261 46.5591 92.9444 47.7166 92.6904 48.8293L94.9616 49.6212C95.5533 49.8275 96.0389 50.2604 96.3114 50.8247C96.5839 51.389 96.6211 52.0384 96.4148 52.6301L93.8219 60.0671C93.6156 60.6588 93.1827 61.1443 92.6184 61.4168C92.0541 61.6894 91.4047 61.7266 90.813 61.5203L83.376 58.9274C82.7843 58.7211 82.2988 58.2882 82.0263 57.7239C81.7537 57.1596 81.7165 56.5102 81.9228 55.9184L82.7147 53.6472ZM92.1718 50.3167C91.4766 51.7669 90.3092 52.9377 88.8611 53.6371C87.413 54.3365 85.7701 54.5229 84.2021 54.1658L83.4102 56.437C83.3414 56.6343 83.3538 56.8507 83.4447 57.0388C83.5355 57.2269 83.6974 57.3712 83.8946 57.44L91.3316 60.0329C91.5288 60.1017 91.7453 60.0893 91.9334 59.9984C92.1215 59.9076 92.2658 59.7457 92.3345 59.5485L94.9274 52.1115C94.9962 51.9143 94.9838 51.6978 94.893 51.5097C94.8021 51.3216 94.6403 51.1773 94.443 51.1086L92.1718 50.3167ZM90.6725 49.794L87.0061 48.5157C86.8088 48.4469 86.5924 48.4593 86.4043 48.5501C86.2162 48.641 86.0719 48.8028 86.0031 49.0001L84.7248 52.6665C85.8934 52.8936 87.1041 52.7365 88.1761 52.2188C89.2481 51.701 90.1238 50.8504 90.6725 49.794V49.794ZM81.2044 47.4288C81.2484 46.8002 81.1962 46.1364 80.9159 45.5432C81.8498 45.1231 82.6652 44.2197 83.0967 42.9822C83.4581 41.9455 83.4968 41.1599 83.3161 40.458C83.2332 40.1543 83.1175 39.8605 82.9709 39.5819C82.9157 39.4725 82.8591 39.3638 82.8011 39.2558C82.7399 39.1394 82.6836 39.033 82.6128 38.8866C82.4675 38.5857 82.5045 38.3984 82.5371 38.3047C82.5555 38.2527 82.5821 38.2039 82.6158 38.1603C82.7351 38.0369 82.8108 37.878 82.8315 37.7076C82.8522 37.5373 82.8166 37.3649 82.7303 37.2166C82.644 37.0683 82.5116 36.9522 82.3533 36.8861C82.1949 36.8199 82.0193 36.8073 81.8532 36.8501L81.8497 36.8505L81.8442 36.852L81.8277 36.8562L81.7727 36.8704C81.4941 36.9518 81.2198 37.0471 80.9508 37.156C80.4643 37.3551 79.8099 37.6724 79.264 38.1327C78.7964 38.5091 78.376 38.9405 78.0119 39.4177C77.6473 39.8895 77.3161 40.423 77.1471 40.9079C76.7156 42.1454 76.7931 43.3585 77.2624 44.2711C76.6745 44.5599 76.221 45.0474 75.8641 45.5686C75.1692 46.5808 74.687 47.964 74.3141 49.0335L74.2949 49.0885C73.2277 52.1496 73.1666 54.1668 73.4381 55.4742C73.5751 56.1292 73.7924 56.597 73.9997 56.9162C74.1099 57.087 74.2398 57.2443 74.3868 57.3848C74.475 57.4569 74.5726 57.5167 74.6768 57.5626C74.8018 57.6062 75.0145 57.6036 75.0145 57.6036C75.217 57.585 75.4165 57.5426 75.6091 57.4773C75.9684 57.3557 76.4324 57.1254 76.9454 56.697C77.9704 55.8433 79.1772 54.2239 80.2445 51.1628L80.2631 51.1093C80.6365 50.0383 81.1183 48.6566 81.2044 47.4288ZM77.9633 45.6816C78.1905 45.5706 78.4551 45.5344 78.8254 45.6635C79.1973 45.7931 79.3799 45.9869 79.4899 46.2121C79.6115 46.4664 79.6668 46.8293 79.6327 47.3195C79.5627 48.3144 79.1528 49.5094 78.7571 50.6442C77.75 53.5328 76.674 54.8725 75.9358 55.4876C75.6536 55.7228 75.4186 55.8561 75.2457 55.9309C75.1214 55.6859 75.0322 55.4246 74.9809 55.1547C74.7855 54.2124 74.7752 52.4956 75.7823 49.6071C76.178 48.4722 76.5998 47.2814 77.1636 46.4587C77.4411 46.055 77.7106 45.8036 77.9639 45.6801L77.9633 45.6816ZM79.344 44.1761C78.7714 43.9764 78.0786 43.0209 78.6345 41.4264C78.7242 41.1691 78.9436 40.7885 79.2591 40.3814C79.5518 39.9952 79.8913 39.6468 80.2696 39.3441C80.4753 39.1706 80.7175 39.0165 80.9669 38.8849C81.0063 39.1021 81.0778 39.3323 81.1941 39.573C81.2648 39.7194 81.3605 39.8996 81.4416 40.0546L81.5658 40.2915C81.6691 40.4976 81.7434 40.672 81.7888 40.853C81.8744 41.1815 81.896 41.6411 81.6093 42.4636C81.0533 44.0581 79.9167 44.3758 79.344 44.1761Z" fill="#F0F0F0" fill-opacity="0.53"/>
    </g>
    <g clip-path="url(#clip5_38_386)">
      <path d="M280.019 337.951C279.523 337.714 279.057 337.42 278.629 337.075C278.767 336.729 278.903 336.366 279.036 335.985L279.211 335.484C279.595 335.865 280.043 336.193 280.541 336.452L281.82 332.786C282.026 332.194 282.459 331.708 283.023 331.436C283.587 331.163 284.237 331.126 284.829 331.332L288.495 332.611C288.664 331.745 288.622 330.852 288.374 330.005C288.126 329.159 287.679 328.385 287.07 327.747C286.461 327.11 285.708 326.627 284.873 326.341C284.039 326.055 283.149 325.973 282.277 326.102C282.328 325.574 282.297 325.042 282.183 324.524C283.315 324.379 284.465 324.51 285.536 324.904C286.607 325.299 287.566 325.947 288.333 326.792C289.1 327.637 289.652 328.655 289.941 329.759C290.23 330.863 290.248 332.021 289.994 333.133L292.266 333.925C292.857 334.131 293.343 334.564 293.615 335.129C293.888 335.693 293.925 336.342 293.719 336.934L291.126 344.371C290.92 344.963 290.487 345.448 289.922 345.721C289.358 345.993 288.709 346.031 288.117 345.824L280.68 343.231C280.088 343.025 279.603 342.592 279.33 342.028C279.058 341.464 279.02 340.814 279.227 340.222L280.019 337.951ZM289.476 334.621C288.781 336.071 287.613 337.242 286.165 337.941C284.717 338.641 283.074 338.827 281.506 338.47L280.714 340.741C280.645 340.938 280.658 341.155 280.749 341.343C280.839 341.531 281.001 341.675 281.199 341.744L288.636 344.337C288.833 344.406 289.049 344.393 289.237 344.302C289.425 344.212 289.57 344.05 289.639 343.853L292.231 336.416C292.3 336.218 292.288 336.002 292.197 335.814C292.106 335.626 291.944 335.481 291.747 335.413L289.476 334.621ZM287.976 334.098L284.31 332.82C284.113 332.751 283.896 332.763 283.708 332.854C283.52 332.945 283.376 333.107 283.307 333.304L282.029 336.971C283.197 337.198 284.408 337.041 285.48 336.523C286.552 336.005 287.428 335.154 287.976 334.098V334.098ZM278.508 331.733C278.552 331.104 278.5 330.44 278.22 329.847C279.154 329.427 279.969 328.524 280.401 327.286C280.762 326.249 280.801 325.464 280.62 324.762C280.537 324.458 280.421 324.165 280.275 323.886C280.22 323.777 280.163 323.668 280.105 323.56C280.044 323.443 279.988 323.337 279.917 323.191C279.771 322.89 279.808 322.702 279.841 322.609C279.859 322.557 279.886 322.508 279.92 322.464C280.039 322.341 280.115 322.182 280.135 322.012C280.156 321.841 280.121 321.669 280.034 321.521C279.948 321.372 279.816 321.256 279.657 321.19C279.499 321.124 279.323 321.111 279.157 321.154L279.154 321.155L279.148 321.156L279.132 321.16L279.077 321.174C278.798 321.256 278.524 321.351 278.255 321.46C277.768 321.659 277.114 321.976 276.568 322.437C276.1 322.813 275.68 323.245 275.316 323.722C274.951 324.194 274.62 324.727 274.451 325.212C274.02 326.449 274.097 327.662 274.566 328.575C273.978 328.864 273.525 329.351 273.168 329.873C272.473 330.885 271.991 332.268 271.618 333.337L271.599 333.393C270.532 336.454 270.471 338.471 270.742 339.778C270.879 340.433 271.096 340.901 271.304 341.22C271.414 341.391 271.544 341.548 271.691 341.689C271.779 341.761 271.877 341.821 271.981 341.867C272.106 341.91 272.318 341.908 272.318 341.908C272.521 341.889 272.72 341.847 272.913 341.781C273.272 341.66 273.736 341.429 274.249 341.001C275.274 340.147 276.481 338.528 277.548 335.467L277.567 335.413C277.94 334.342 278.422 332.961 278.508 331.733ZM275.267 329.986C275.494 329.875 275.759 329.838 276.129 329.968C276.501 330.097 276.684 330.291 276.794 330.516C276.915 330.77 276.971 331.133 276.937 331.624C276.867 332.618 276.457 333.813 276.061 334.948C275.054 337.837 273.978 339.177 273.24 339.792C272.958 340.027 272.723 340.16 272.55 340.235C272.425 339.99 272.336 339.729 272.285 339.459C272.09 338.516 272.079 336.8 273.086 333.911C273.482 332.776 273.904 331.585 274.468 330.763C274.745 330.359 275.015 330.108 275.268 329.984L275.267 329.986ZM276.648 328.48C276.075 328.28 275.383 327.325 275.938 325.73C276.028 325.473 276.248 325.093 276.563 324.685C276.856 324.299 277.195 323.951 277.574 323.648C277.779 323.475 278.021 323.321 278.271 323.189C278.31 323.406 278.382 323.636 278.498 323.877C278.569 324.023 278.664 324.204 278.746 324.359L278.87 324.595C278.973 324.802 279.047 324.976 279.093 325.157C279.178 325.485 279.2 325.945 278.913 326.768C278.357 328.362 277.221 328.68 276.648 328.48Z" fill="#F0F0F0" fill-opacity="0.53"/>
    </g>
    <g clip-path="url(#clip6_38_386)">
      <path d="M315.978 876.486C316.474 876.723 316.94 877.017 317.367 877.362C317.23 877.708 317.094 878.071 316.961 878.452L316.786 878.953C316.402 878.572 315.954 878.244 315.455 877.985L314.177 881.652C313.971 882.243 313.538 882.729 312.973 883.001C312.409 883.274 311.76 883.311 311.168 883.105L307.502 881.826C307.333 882.692 307.374 883.585 307.622 884.432C307.87 885.278 308.317 886.052 308.927 886.69C309.536 887.327 310.289 887.81 311.123 888.096C311.957 888.382 312.848 888.464 313.72 888.335C313.668 888.863 313.7 889.395 313.814 889.913C312.682 890.058 311.532 889.927 310.461 889.533C309.39 889.138 308.43 888.49 307.663 887.645C306.896 886.8 306.345 885.782 306.056 884.678C305.767 883.574 305.748 882.416 306.002 881.304L303.731 880.512C303.139 880.306 302.654 879.873 302.381 879.308C302.109 878.744 302.072 878.095 302.278 877.503L304.871 870.066C305.077 869.474 305.51 868.989 306.074 868.716C306.638 868.444 307.288 868.406 307.88 868.613L315.317 871.206C315.908 871.412 316.394 871.845 316.666 872.409C316.939 872.973 316.976 873.623 316.77 874.215L315.978 876.486ZM306.521 879.816C307.216 878.366 308.383 877.195 309.832 876.496C311.28 875.796 312.923 875.61 314.491 875.967L315.282 873.696C315.351 873.499 315.339 873.282 315.248 873.094C315.157 872.906 314.995 872.762 314.798 872.693L307.361 870.1C307.164 870.031 306.947 870.044 306.759 870.135C306.571 870.225 306.427 870.387 306.358 870.585L303.765 878.021C303.696 878.219 303.709 878.435 303.8 878.623C303.891 878.811 304.052 878.956 304.25 879.024L306.521 879.816ZM308.02 880.339L311.687 881.617C311.884 881.686 312.1 881.674 312.288 881.583C312.476 881.492 312.621 881.33 312.69 881.133L313.968 877.467C312.799 877.239 311.589 877.396 310.517 877.914C309.445 878.432 308.569 879.283 308.02 880.339V880.339ZM317.488 882.704C317.444 883.333 317.496 883.997 317.777 884.59C316.843 885.01 316.027 885.913 315.596 887.151C315.235 888.188 315.196 888.973 315.377 889.675C315.459 889.979 315.575 890.272 315.722 890.551C315.777 890.66 315.834 890.769 315.892 890.877C315.953 890.994 316.009 891.1 316.08 891.246C316.225 891.547 316.188 891.735 316.156 891.828C316.137 891.88 316.111 891.929 316.077 891.973C315.958 892.096 315.882 892.255 315.861 892.425C315.84 892.596 315.876 892.768 315.962 892.916C316.049 893.065 316.181 893.181 316.339 893.247C316.498 893.313 316.673 893.326 316.839 893.283L316.843 893.282L316.848 893.281L316.865 893.277L316.92 893.263C317.199 893.181 317.473 893.086 317.742 892.977C318.228 892.778 318.883 892.461 319.429 892C319.896 891.624 320.317 891.192 320.681 890.715C321.045 890.244 321.376 889.71 321.546 889.225C321.977 887.988 321.899 886.775 321.43 885.862C322.018 885.573 322.472 885.086 322.829 884.564C323.523 883.552 324.006 882.169 324.379 881.1L324.398 881.044C325.465 877.983 325.526 875.966 325.255 874.659C325.118 874.004 324.9 873.536 324.693 873.217C324.583 873.046 324.453 872.889 324.306 872.748C324.218 872.676 324.12 872.616 324.016 872.57C323.891 872.527 323.678 872.529 323.678 872.529C323.476 872.548 323.276 872.59 323.084 872.656C322.724 872.777 322.26 873.008 321.747 873.436C320.722 874.29 319.515 875.909 318.448 878.97L318.429 879.024C318.056 880.095 317.574 881.476 317.488 882.704ZM320.729 884.451C320.502 884.562 320.238 884.599 319.867 884.47C319.495 884.34 319.313 884.146 319.203 883.921C319.081 883.667 319.026 883.304 319.06 882.813C319.13 881.819 319.54 880.624 319.936 879.489C320.943 876.6 322.019 875.26 322.757 874.645C323.039 874.41 323.274 874.277 323.447 874.202C323.571 874.447 323.66 874.708 323.712 874.978C323.907 875.921 323.917 877.637 322.91 880.526C322.515 881.661 322.093 882.852 321.529 883.674C321.252 884.078 320.982 884.329 320.729 884.453L320.729 884.451ZM319.349 885.957C319.921 886.157 320.614 887.112 320.058 888.707C319.968 888.964 319.749 889.344 319.434 889.752C319.141 890.138 318.801 890.486 318.423 890.789C318.217 890.962 317.975 891.117 317.726 891.248C317.686 891.031 317.615 890.801 317.499 890.56C317.428 890.414 317.332 890.233 317.251 890.078L317.127 889.842C317.024 889.635 316.949 889.461 316.904 889.28C316.818 888.952 316.797 888.492 317.083 887.669C317.639 886.075 318.776 885.757 319.349 885.957Z" fill="#F0F0F0" fill-opacity="0.53"/>
    </g>
    <circle cx="234" cy="29" r="11" fill="#EDEDED" fill-opacity="0.17"/>
    <circle cx="164.693" cy="901.133" r="11" transform="rotate(-180 164.693 901.133)" fill="#EDEDED" fill-opacity="0.17"/>
    <circle cx="77.1016" cy="119.102" r="15.1595" transform="rotate(-15 77.1016 119.102)" fill="#EDEDED" fill-opacity="0.17"/>
    <circle cx="321.591" cy="811.032" r="15.1595" transform="rotate(165 321.591 811.032)" fill="#EDEDED" fill-opacity="0.17"/>
    <circle cx="-0.433453" cy="23.5666" r="15.1595" transform="rotate(-15 -0.433453 23.5666)" fill="#EDEDED" fill-opacity="0.17"/>
    <circle cx="399.126" cy="906.566" r="15.1595" transform="rotate(165 399.126 906.566)" fill="#EDEDED" fill-opacity="0.17"/>
    <circle r="9.6725" transform="matrix(-0.965926 0.258819 0.258819 0.965926 204.567 168.567)" fill="#EDEDED" fill-opacity="0.17"/>
    <circle r="9.6725" transform="matrix(0.965926 -0.258819 -0.258819 -0.965926 194.126 761.566)" fill="#EDEDED" fill-opacity="0.17"/>
    <circle r="9.6725" transform="matrix(-0.965926 0.258819 0.258819 0.965926 89.8463 237.846)" fill="#EDEDED" fill-opacity="0.17"/>
    <circle r="9.6725" transform="matrix(0.965926 -0.258819 -0.258819 -0.965926 308.846 692.287)" fill="#EDEDED" fill-opacity="0.17"/>
    <circle r="9.6725" transform="matrix(0.965926 -0.258819 -0.258819 -0.965926 149.846 508.846)" fill="#EDEDED" fill-opacity="0.17"/>
    <circle cx="280.846" cy="93.8464" r="4.61158" transform="rotate(165 280.846 93.8464)" fill="#EDEDED" fill-opacity="0.17"/>
    <circle cx="117.846" cy="836.287" r="4.61158" transform="rotate(-15 117.846 836.287)" fill="#EDEDED" fill-opacity="0.17"/>
    <circle cx="250.567" cy="246.567" r="15.1595" transform="rotate(-15 250.567 246.567)" fill="#EDEDED" fill-opacity="0.17"/>
    <circle cx="338.278" cy="412.328" r="24.7222" transform="rotate(-15 338.278 412.328)" fill="#EDEDED" fill-opacity="0.17"/>
    <circle cx="148.126" cy="683.566" r="15.1595" transform="rotate(165 148.126 683.566)" fill="#EDEDED" fill-opacity="0.17"/>
    <circle cx="72.5665" cy="326.566" r="15.1595" transform="rotate(165 72.5665 326.566)" fill="#EDEDED" fill-opacity="0.17"/>
    <g clip-path="url(#clip7_38_386)">
      <path d="M98.9492 190.415C99.521 190.946 99.6622 191.771 99.2994 192.462C98.1566 194.634 95.3029 199.194 91.1808 199.9C87.0587 200.605 82.8511 197.254 81.0507 195.585C80.7734 195.331 80.5884 194.992 80.5249 194.622C80.4615 194.251 80.5233 193.87 80.7005 193.538C81.8434 191.365 84.6971 186.806 88.8192 186.1C92.9412 185.395 97.1488 188.746 98.9492 190.415V190.415Z" stroke="#F0F0F0" stroke-opacity="0.53" stroke-width="2" stroke-linecap="round" stroke-linejoin="round"/>
      <path d="M90.506 195.957C92.1391 195.677 93.2365 194.127 92.957 192.494C92.6775 190.861 91.127 189.763 89.4939 190.043C87.8608 190.322 86.7635 191.873 87.043 193.506C87.3225 195.139 88.8729 196.236 90.506 195.957Z" stroke="#F0F0F0" stroke-opacity="0.53" stroke-width="2" stroke-linecap="round" stroke-linejoin="round"/>
    </g>
    <g clip-path="url(#clip8_38_386)">
      <path d="M299.743 739.718C299.172 739.187 299.03 738.362 299.393 737.672C300.536 735.499 303.39 730.939 307.512 730.234C311.634 729.528 315.842 732.879 317.642 734.549C317.919 734.802 318.104 735.141 318.168 735.512C318.231 735.882 318.169 736.263 317.992 736.595C316.849 738.768 313.996 743.327 309.873 744.033C305.751 744.738 301.544 741.387 299.743 739.718V739.718Z" stroke="#F0F0F0" stroke-opacity="0.53" stroke-width="2" stroke-linecap="round" stroke-linejoin="round"/>
      <path d="M308.187 734.176C306.553 734.456 305.456 736.006 305.736 737.639C306.015 739.272 307.566 740.37 309.199 740.09C310.832 739.811 311.929 738.26 311.65 736.627C311.37 734.994 309.82 733.897 308.187 734.176Z" stroke="#F0F0F0" stroke-opacity="0.53" stroke-width="2" stroke-linecap="round" stroke-linejoin="round"/>
    </g>
    <g clip-path="url(#clip9_38_386)">
      <path d="M353.373 152.17C353.16 152.577 353.243 153.063 353.579 153.375C354.64 154.359 357.119 156.333 359.548 155.917C361.977 155.502 363.658 152.815 364.331 151.535C364.436 151.34 364.472 151.115 364.435 150.897C364.397 150.679 364.288 150.479 364.125 150.329C363.064 149.346 360.585 147.371 358.156 147.787C355.728 148.203 354.047 150.889 353.373 152.17V152.17Z" stroke="#F0F0F0" stroke-opacity="0.53" stroke-width="2" stroke-linecap="round" stroke-linejoin="round"/>
      <path d="M359.15 153.594C358.188 153.759 357.275 153.113 357.11 152.15C356.945 151.188 357.592 150.275 358.554 150.11C359.516 149.945 360.43 150.592 360.594 151.554C360.759 152.516 360.113 153.43 359.15 153.594Z" stroke="#F0F0F0" stroke-opacity="0.53" stroke-width="2" stroke-linecap="round" stroke-linejoin="round"/>
    </g>
    <g clip-path="url(#clip10_38_386)">
      <path d="M45.3195 777.964C45.5331 777.556 45.4499 777.07 45.1131 776.758C44.0524 775.775 41.5733 773.8 39.1447 774.216C36.716 774.631 35.0347 777.318 34.3614 778.598C34.2569 778.793 34.2205 779.018 34.2579 779.236C34.2953 779.455 34.4043 779.654 34.5677 779.804C35.6284 780.787 38.1075 782.762 40.5361 782.346C42.9648 781.93 44.6461 779.244 45.3195 777.964V777.964Z" stroke="#F0F0F0" stroke-opacity="0.53" stroke-width="2" stroke-linecap="round" stroke-linejoin="round"/>
      <path d="M39.5422 776.539C40.5044 776.374 41.4179 777.02 41.5826 777.983C41.7473 778.945 41.1008 779.858 40.1386 780.023C39.1764 780.188 38.2629 779.541 38.0982 778.579C37.9335 777.617 38.58 776.703 39.5422 776.539Z" stroke="#F0F0F0" stroke-opacity="0.53" stroke-width="2" stroke-linecap="round" stroke-linejoin="round"/>
    </g>
    <g clip-path="url(#clip11_38_386)">
      <path d="M347.802 234.268C348.373 234.799 348.515 235.624 348.152 236.314C347.009 238.487 344.155 243.047 340.033 243.752C335.911 244.457 331.703 241.106 329.903 239.437C329.626 239.183 329.441 238.844 329.377 238.474C329.314 238.103 329.376 237.722 329.553 237.391C330.696 235.218 333.549 230.658 337.671 229.953C341.794 229.247 346.001 232.598 347.802 234.268V234.268Z" stroke="#F0F0F0" stroke-opacity="0.53" stroke-width="2" stroke-linecap="round" stroke-linejoin="round"/>
      <path d="M339.358 239.809C340.991 239.53 342.089 237.979 341.809 236.346C341.53 234.713 339.979 233.616 338.346 233.895C336.713 234.175 335.616 235.725 335.895 237.358C336.175 238.991 337.725 240.089 339.358 239.809Z" stroke="#F0F0F0" stroke-opacity="0.53" stroke-width="2" stroke-linecap="round" stroke-linejoin="round"/>
    </g>
    <g clip-path="url(#clip12_38_386)">
      <path d="M94.8016 446.268C95.3733 446.799 95.5145 447.624 95.1518 448.314C94.0089 450.487 91.1552 455.047 87.0331 455.752C82.9111 456.457 78.7034 453.106 76.9031 451.437C76.6257 451.183 76.4407 450.844 76.3773 450.474C76.3139 450.103 76.3756 449.722 76.5529 449.391C77.6957 447.218 80.5494 442.658 84.6715 441.953C88.7936 441.247 93.0012 444.598 94.8016 446.268V446.268Z" stroke="#F0F0F0" stroke-opacity="0.53" stroke-width="2" stroke-linecap="round" stroke-linejoin="round"/>
      <path d="M86.3584 451.809C87.9915 451.53 89.0888 449.979 88.8093 448.346C88.5298 446.713 86.9793 445.616 85.3462 445.895C83.7131 446.175 82.6158 447.725 82.8953 449.358C83.1748 450.991 84.7253 452.089 86.3584 451.809Z" stroke="#F0F0F0" stroke-opacity="0.53" stroke-width="2" stroke-linecap="round" stroke-linejoin="round"/>
    </g>
    <g clip-path="url(#clip13_38_386)">
      <path d="M62.8016 331.268C63.3733 331.799 63.5145 332.624 63.1518 333.314C62.0089 335.487 59.1552 340.047 55.0331 340.752C50.9111 341.457 46.7034 338.106 44.9031 336.437C44.6257 336.183 44.4407 335.844 44.3773 335.474C44.3139 335.103 44.3756 334.722 44.5529 334.391C45.6957 332.218 48.5494 327.658 52.6715 326.953C56.7936 326.247 61.0012 329.598 62.8016 331.268V331.268Z" stroke="#F0F0F0" stroke-opacity="0.53" stroke-width="2" stroke-linecap="round" stroke-linejoin="round"/>
      <path d="M54.3584 336.809C55.9915 336.53 57.0888 334.979 56.8093 333.346C56.5298 331.713 54.9793 330.616 53.3462 330.895C51.7131 331.175 50.6158 332.725 50.8953 334.358C51.1748 335.991 52.7253 337.089 54.3584 336.809Z" stroke="#F0F0F0" stroke-opacity="0.53" stroke-width="2" stroke-linecap="round" stroke-linejoin="round"/>
    </g>
    <g clip-path="url(#clip14_38_386)">
      <path d="M50.8911 695.865C50.3193 695.334 50.1781 694.509 50.5409 693.819C51.6837 691.646 54.5374 687.087 58.6595 686.381C62.7816 685.676 66.9892 689.027 68.7896 690.696C69.0669 690.95 69.2519 691.289 69.3154 691.659C69.3788 692.03 69.317 692.411 69.1398 692.742C67.9969 694.915 65.1432 699.475 61.0211 700.18C56.8991 700.886 52.6915 697.535 50.8911 695.865V695.865Z" stroke="#F0F0F0" stroke-opacity="0.53" stroke-width="2" stroke-linecap="round" stroke-linejoin="round"/>
      <path d="M59.3343 690.324C57.7012 690.603 56.6038 692.154 56.8833 693.787C57.1628 695.42 58.7133 696.517 60.3464 696.238C61.9795 695.958 63.0768 694.408 62.7973 692.775C62.5178 691.142 60.9674 690.044 59.3343 690.324Z" stroke="#F0F0F0" stroke-opacity="0.53" stroke-width="2" stroke-linecap="round" stroke-linejoin="round"/>
    </g>
    <circle cx="137.465" cy="132" r="11" fill="#EDEDED" fill-opacity="0.17"/>
    <circle cx="261.228" cy="798.133" r="11" transform="rotate(-180 261.228 798.133)" fill="#EDEDED" fill-opacity="0.17"/>
    <circle cx="405.567" cy="16.1016" r="15.1595" transform="rotate(-15 405.567 16.1016)" fill="#EDEDED" fill-opacity="0.17"/>
    <circle cx="-6.87392" cy="914.032" r="15.1595" transform="rotate(165 -6.87392 914.032)" fill="#EDEDED" fill-opacity="0.17"/>
    <circle r="9.6725" transform="matrix(-0.965926 0.258819 0.258819 0.965926 108.031 271.567)" fill="#EDEDED" fill-opacity="0.17"/>
    <circle r="9.6725" transform="matrix(0.965926 -0.258819 -0.258819 -0.965926 290.661 658.566)" fill="#EDEDED" fill-opacity="0.17"/>
    <circle r="9.6725" transform="matrix(0.965926 -0.258819 -0.258819 -0.965926 289.846 508.846)" fill="#EDEDED" fill-opacity="0.17"/>
    <circle r="9.6725" transform="matrix(-0.965926 0.258819 0.258819 0.965926 418.311 134.846)" fill="#EDEDED" fill-opacity="0.17"/>
    <circle r="9.6725" transform="matrix(-0.965926 0.258819 0.258819 0.965926 434.846 82.8463)" fill="#EDEDED" fill-opacity="0.17"/>
    <circle cx="184.311" cy="196.846" r="4.61158" transform="rotate(165 184.311 196.846)" fill="#EDEDED" fill-opacity="0.17"/>
    <circle cx="214.381" cy="733.287" r="4.61158" transform="rotate(-15 214.381 733.287)" fill="#EDEDED" fill-opacity="0.17"/>
    <circle cx="154.032" cy="349.567" r="15.1595" transform="rotate(-15 154.032 349.567)" fill="#EDEDED" fill-opacity="0.17"/>
    <circle cx="244.661" cy="580.566" r="15.1595" transform="rotate(165 244.661 580.566)" fill="#EDEDED" fill-opacity="0.17"/>
    <g clip-path="url(#clip15_38_386)">
      <path d="M256.838 255.17C256.624 255.577 256.708 256.063 257.044 256.375C258.105 257.359 260.584 259.333 263.013 258.917C265.442 258.502 267.123 255.815 267.796 254.535C267.901 254.34 267.937 254.115 267.9 253.897C267.862 253.679 267.753 253.479 267.59 253.329C266.529 252.346 264.05 250.371 261.621 250.787C259.193 251.203 257.511 253.889 256.838 255.17V255.17Z" stroke="#F0F0F0" stroke-opacity="0.53" stroke-width="2" stroke-linecap="round" stroke-linejoin="round"/>
      <path d="M262.615 256.594C261.653 256.759 260.74 256.113 260.575 255.15C260.41 254.188 261.057 253.275 262.019 253.11C262.981 252.945 263.895 253.592 264.059 254.554C264.224 255.516 263.578 256.43 262.615 256.594Z" stroke="#F0F0F0" stroke-opacity="0.53" stroke-width="2" stroke-linecap="round" stroke-linejoin="round"/>
    </g>
    <g clip-path="url(#clip16_38_386)">
      <path d="M141.854 674.964C142.068 674.556 141.985 674.07 141.648 673.758C140.587 672.775 138.108 670.8 135.68 671.216C133.251 671.631 131.57 674.318 130.896 675.598C130.792 675.793 130.756 676.018 130.793 676.236C130.83 676.455 130.939 676.654 131.103 676.804C132.163 677.787 134.643 679.762 137.071 679.346C139.5 678.93 141.181 676.244 141.854 674.964V674.964Z" stroke="#F0F0F0" stroke-opacity="0.53" stroke-width="2" stroke-linecap="round" stroke-linejoin="round"/>
      <path d="M136.077 673.539C137.039 673.374 137.953 674.02 138.118 674.983C138.282 675.945 137.636 676.858 136.674 677.023C135.711 677.188 134.798 676.541 134.633 675.579C134.469 674.617 135.115 673.703 136.077 673.539Z" stroke="#F0F0F0" stroke-opacity="0.53" stroke-width="2" stroke-linecap="round" stroke-linejoin="round"/>
    </g>
    <circle cx="-10.4335" cy="152.567" r="15.1595" transform="rotate(-15 -10.4335 152.567)" fill="#EDEDED" fill-opacity="0.17"/>
    <circle cx="409.126" cy="777.566" r="15.1595" transform="rotate(165 409.126 777.566)" fill="#EDEDED" fill-opacity="0.17"/>
    <path d="M8.60511 212.937C9.17691 213.468 9.3181 214.293 8.95531 214.983C7.81248 217.156 4.95876 221.715 0.836694 222.421C-3.28538 223.126 -7.49299 219.775 -9.29337 218.106C-9.57076 217.852 -9.75576 217.513 -9.81918 217.143C-9.88259 216.772 -9.8208 216.391 -9.64357 216.06C-8.50074 213.887 -5.64702 209.327 -1.52495 208.622C2.59712 207.916 6.80473 211.267 8.60511 212.937V212.937Z" stroke="#F0F0F0" stroke-opacity="0.53" stroke-width="2" stroke-linecap="round" stroke-linejoin="round"/>
    <path d="M0.161922 218.478C1.79503 218.199 2.89236 216.648 2.61286 215.015C2.33337 213.382 0.782898 212.285 -0.850213 212.564C-2.48332 212.844 -3.58065 214.394 -3.30115 216.027C-3.02166 217.66 -1.47119 218.758 0.161922 218.478Z" stroke="#F0F0F0" stroke-opacity="0.53" stroke-width="2" stroke-linecap="round" stroke-linejoin="round"/>
    <path d="M390.088 717.197C389.516 716.666 389.375 715.841 389.737 715.15C390.88 712.978 393.734 708.418 397.856 707.712C401.978 707.007 406.186 710.358 407.986 712.027C408.263 712.281 408.448 712.62 408.512 712.99C408.575 713.361 408.513 713.742 408.336 714.074C407.193 716.247 404.34 720.806 400.218 721.512C396.096 722.217 391.888 718.866 390.088 717.197V717.197Z" stroke="#F0F0F0" stroke-opacity="0.53" stroke-width="2" stroke-linecap="round" stroke-linejoin="round"/>
    <path d="M398.531 711.655C396.898 711.935 395.8 713.485 396.08 715.118C396.359 716.751 397.91 717.849 399.543 717.569C401.176 717.29 402.273 715.739 401.994 714.106C401.714 712.473 400.164 711.376 398.531 711.655Z" stroke="#F0F0F0" stroke-opacity="0.53" stroke-width="2" stroke-linecap="round" stroke-linejoin="round"/>
    <path d="M60.7063 583.106C60.1345 582.575 59.9933 581.75 60.3561 581.06C61.4989 578.887 64.3526 574.327 68.4747 573.622C72.5968 572.916 76.8044 576.267 78.6048 577.937C78.8822 578.19 79.0672 578.529 79.1306 578.9C79.194 579.27 79.1322 579.651 78.955 579.983C77.8121 582.156 74.9584 586.715 70.8364 587.421C66.7143 588.126 62.5067 584.775 60.7063 583.106V583.106Z" stroke="#F0F0F0" stroke-opacity="0.53" stroke-width="2" stroke-linecap="round" stroke-linejoin="round"/>
    <path d="M69.1495 577.564C67.5164 577.844 66.419 579.394 66.6985 581.027C66.978 582.66 68.5285 583.758 70.1616 583.478C71.7947 583.199 72.892 581.648 72.6126 580.015C72.3331 578.382 70.7826 577.285 69.1495 577.564Z" stroke="#F0F0F0" stroke-opacity="0.53" stroke-width="2" stroke-linecap="round" stroke-linejoin="round"/>
  </g>
  <defs>
    <linearGradient id="paint0_linear_38_386" x1="11" y1="15.5004" x2="525.203" y2="68.0043" gradientUnits="userSpaceOnUse">
      <stop stop-color="#0A92CF"/>
      <stop offset="0.333333" stop-color="#1898CF"/>
      <stop offset="1" stop-color="#8DCBCB"/>
    </linearGradient>
    <clipPath id="clip0_38_386">
      <rect width="428" height="926" fill="white"/>
    </clipPath>
    <clipPath id="clip1_38_386">
      <rect width="49.8541" height="49.8541" fill="white" transform="translate(317.648 29.0607) rotate(-19.2211)"/>
    </clipPath>
    <clipPath id="clip2_38_386">
      <rect width="49.8541" height="49.8541" fill="white" transform="translate(81.0446 901.073) rotate(160.779)"/>
    </clipPath>
    <clipPath id="clip3_38_386">
      <rect width="49.8541" height="49.8541" fill="white" transform="translate(409.488 581.075) rotate(160.779)"/>
    </clipPath>
    <clipPath id="clip4_38_386">
      <rect width="25.2032" height="25.2032" fill="white" transform="translate(77.9933 33.696) rotate(19.2211)"/>
    </clipPath>
    <clipPath id="clip5_38_386">
      <rect width="25.2032" height="25.2032" fill="white" transform="translate(275.297 318) rotate(19.2211)"/>
    </clipPath>
    <clipPath id="clip6_38_386">
      <rect width="25.2032" height="25.2032" fill="white" transform="translate(320.699 896.437) rotate(-160.779)"/>
    </clipPath>
    <clipPath id="clip7_38_386">
      <rect width="24" height="24" fill="white" transform="translate(76.1477 183.196) rotate(-9.71161)"/>
    </clipPath>
    <clipPath id="clip8_38_386">
      <rect width="24" height="24" fill="white" transform="translate(322.545 746.937) rotate(170.288)"/>
    </clipPath>
    <clipPath id="clip9_38_386">
      <rect width="14.1403" height="14.1403" fill="white" transform="matrix(-0.985669 0.168689 0.168689 0.985669 364.628 143.691)"/>
    </clipPath>
    <clipPath id="clip10_38_386">
      <rect width="14.1403" height="14.1403" fill="white" transform="matrix(0.985669 -0.168689 -0.168689 -0.985669 34.0642 786.442)"/>
    </clipPath>
    <clipPath id="clip11_38_386">
      <rect width="24" height="24" fill="white" transform="translate(325 227.049) rotate(-9.71161)"/>
    </clipPath>
    <clipPath id="clip12_38_386">
      <rect width="24" height="24" fill="white" transform="translate(72 439.049) rotate(-9.71161)"/>
    </clipPath>
    <clipPath id="clip13_38_386">
      <rect width="24" height="24" fill="white" transform="translate(40 324.049) rotate(-9.71161)"/>
    </clipPath>
    <clipPath id="clip14_38_386">
      <rect width="24" height="24" fill="white" transform="translate(73.6926 703.084) rotate(170.288)"/>
    </clipPath>
    <clipPath id="clip15_38_386">
      <rect width="14.1403" height="14.1403" fill="white" transform="matrix(-0.985669 0.168689 0.168689 0.985669 268.093 246.691)"/>
    </clipPath>
    <clipPath id="clip16_38_386">
      <rect width="14.1403" height="14.1403" fill="white" transform="matrix(0.985669 -0.168689 -0.168689 -0.985669 130.599 683.442)"/>
    </clipPath>
  </defs>
</svg>
