<svg width="81" height="81" viewBox="0 0 81 81" fill="none" xmlns="http://www.w3.org/2000/svg">
<path d="M75.6 40.5V51.3C75.6 52.0161 75.3156 52.7029 74.8092 53.2092C74.3029 53.7156 73.6161 54 72.9 54C72.184 54 71.4972 53.7156 70.9909 53.2092C70.4845 52.7029 70.2 52.0161 70.2 51.3C70.2 51.3 70.524 48.6 64.8 48.6H59.4V62.1C59.4 62.8161 59.1156 63.5029 58.6092 64.0092C58.1029 64.5156 57.4161 64.8 56.7 64.8H13.5C12.784 64.8 12.0972 64.5156 11.5909 64.0092C11.0845 63.5029 10.8 62.8161 10.8 62.1V40.5C10.8 39.784 11.0845 39.0972 11.5909 38.5909C12.0972 38.0845 12.784 37.8 13.5 37.8H56.7C57.4161 37.8 58.1029 38.0845 58.6092 38.5909C59.1156 39.0972 59.4 39.784 59.4 40.5V43.2H64.8C70.524 43.2 70.2 40.5 70.2 40.5C70.2 39.784 70.4845 39.0972 70.9909 38.5909C71.4972 38.0845 72.184 37.8 72.9 37.8C73.6161 37.8 74.3029 38.0845 74.8092 38.5909C75.3156 39.0972 75.6 39.784 75.6 40.5V40.5ZM21.6 16.2C18.7357 16.2 15.9887 17.3379 13.9633 19.3633C11.9379 21.3887 10.8 24.1357 10.8 27C10.8 29.8644 11.9379 32.6114 13.9633 34.6368C15.9887 36.6622 18.7357 37.8 21.6 37.8C24.4644 37.8 27.2114 36.6622 29.2368 34.6368C31.2622 32.6114 32.4 29.8644 32.4 27C32.4 24.1357 31.2622 21.3887 29.2368 19.3633C27.2114 17.3379 24.4644 16.2 21.6 16.2ZM21.6 32.4C20.1679 32.4 18.7944 31.8311 17.7817 30.8184C16.769 29.8057 16.2 28.4322 16.2 27C16.2 25.5679 16.769 24.1944 17.7817 23.1817C18.7944 22.169 20.1679 21.6 21.6 21.6C23.0322 21.6 24.4057 22.169 25.4184 23.1817C26.4311 24.1944 27 25.5679 27 27C27 28.4322 26.4311 29.8057 25.4184 30.8184C24.4057 31.8311 23.0322 32.4 21.6 32.4ZM45.9 10.8C42.3196 10.8 38.8858 12.2224 36.3541 14.7541C33.8224 17.2858 32.4 20.7196 32.4 24.3C32.4 27.8805 33.8224 31.3142 36.3541 33.846C38.8858 36.3777 42.3196 37.8 45.9 37.8C49.4805 37.8 52.9142 36.3777 55.446 33.846C57.9777 31.3142 59.4 27.8805 59.4 24.3C59.4 20.7196 57.9777 17.2858 55.446 14.7541C52.9142 12.2224 49.4805 10.8 45.9 10.8V10.8ZM45.9 32.4C43.7518 32.4 41.6915 31.5467 40.1725 30.0276C38.6534 28.5086 37.8 26.4483 37.8 24.3C37.8 22.1518 38.6534 20.0915 40.1725 18.5725C41.6915 17.0534 43.7518 16.2 45.9 16.2C48.0483 16.2 50.1086 17.0534 51.6276 18.5725C53.1467 20.0915 54 22.1518 54 24.3C54 26.4483 53.1467 28.5086 51.6276 30.0276C50.1086 31.5467 48.0483 32.4 45.9 32.4Z" fill="url(#paint0_linear_150_4)"/>
<defs>
<linearGradient id="paint0_linear_150_4" x1="10.8" y1="21.1847" x2="77.9813" y2="23.1809" gradientUnits="userSpaceOnUse">
<stop stop-color="#0A92CF"/>
<stop offset="1" stop-color="#8DCBCB"/>
</linearGradient>
</defs>
</svg>
