<svg width="81" height="81" viewBox="0 0 81 81" fill="none" xmlns="http://www.w3.org/2000/svg">
<path d="M53.1 40.4969C53.1 41.3259 52.7681 42.121 52.1774 42.7072C51.5867 43.2935 50.7854 43.6228 49.95 43.6228C49.1146 43.6228 48.3134 43.2935 47.7226 42.7072C47.1319 42.121 46.8 41.3259 46.8 40.4969C46.8 39.6678 47.1319 38.8727 47.7226 38.2865C48.3134 37.7003 49.1146 37.3709 49.95 37.3709C50.7854 37.3709 51.5867 37.7003 52.1774 38.2865C52.7681 38.8727 53.1 39.6678 53.1 40.4969ZM37.9674 3.06063C37.5106 2.97002 37.0392 2.98109 36.5872 3.09304C36.1352 3.20499 35.7139 3.41503 35.3535 3.70804C34.9932 4.00104 34.7028 4.36971 34.5034 4.78749C34.3039 5.20527 34.2003 5.66175 34.2 6.12405V74.8759C34.2003 75.3382 34.3039 75.7947 34.5034 76.2125C34.7028 76.6303 34.9932 76.999 35.3535 77.292C35.7139 77.585 36.1352 77.795 36.5872 77.907C37.0392 78.0189 37.5106 78.03 37.9674 77.9394L69.4674 71.6875C70.1812 71.5459 70.8236 71.1634 71.2853 70.6049C71.747 70.0464 71.9996 69.3465 72 68.6241V12.3759C71.9996 11.6535 71.747 10.9536 71.2853 10.3951C70.8236 9.83665 70.1812 9.4541 69.4674 9.31251L37.9674 3.06063ZM40.5 71.0623V9.9377L65.7 14.9392V66.0608L40.5 71.0623ZM27.9 71.75V65.4981H15.3V15.5019H27.9V9.24999H12.15C11.3146 9.24999 10.5134 9.57933 9.92261 10.1656C9.33187 10.7518 9 11.5469 9 12.3759V68.6241C9 69.4531 9.33187 70.2482 9.92261 70.8344C10.5134 71.4207 11.3146 71.75 12.15 71.75H27.9Z" fill="url(#paint0_linear_49_121)"/>
<defs>
<linearGradient id="paint0_linear_49_121" x1="9" y1="17.4231" x2="74.3445" y2="18.7822" gradientUnits="userSpaceOnUse">
<stop stop-color="#0A92CF"/>
<stop offset="1" stop-color="#8DCBCB"/>
</linearGradient>
</defs>
</svg>
