<svg width="68" height="68" viewBox="0 0 68 68" fill="none" xmlns="http://www.w3.org/2000/svg">
<path d="M36.6154 61.3389L62.7692 47.0769V21.0865L36.6154 30.6082V61.3389ZM34 25.9904L62.524 15.6106L34 5.23077L5.47596 15.6106L34 25.9904ZM68 15.6923V47.0769C68 48.0304 67.7548 48.9159 67.2644 49.7332C66.774 50.5505 66.1066 51.1907 65.262 51.6538L36.4928 67.3462C35.73 67.7821 34.899 68 34 68C33.101 68 32.27 67.7821 31.5072 67.3462L2.73798 51.6538C1.89343 51.1907 1.22596 50.5505 0.735577 49.7332C0.245192 48.9159 0 48.0304 0 47.0769V15.6923C0 14.6026 0.313301 13.6082 0.939904 12.7091C1.56651 11.8101 2.39744 11.1699 3.43269 10.7885L32.2019 0.326923C32.8013 0.108974 33.4006 0 34 0C34.5994 0 35.1987 0.108974 35.7981 0.326923L64.5673 10.7885C65.6026 11.1699 66.4335 11.8101 67.0601 12.7091C67.6867 13.6082 68 14.6026 68 15.6923Z" fill="url(#paint0_linear_49_60)"/>
<defs>
<linearGradient id="paint0_linear_49_60" x1="-2.69016e-07" y1="13.0769" x2="70.5178" y2="14.823" gradientUnits="userSpaceOnUse">
<stop stop-color="#0A92CF"/>
<stop offset="1" stop-color="#8DCBCB"/>
</linearGradient>
</defs>
</svg>
