<svg width="133" height="127" viewBox="0 0 133 127" fill="none" xmlns="http://www.w3.org/2000/svg">
  <g filter="url(#filter0_d_103_4)">
    <g clip-path="url(#clip0_103_4)">
      <path d="M35.2104 72.1555H19.6052V87.7704H35.2104V72.1555Z" fill="white"/>
      <path d="M19.6052 72.1555H4V87.7704H19.6052V72.1555Z" fill="#DAEEED"/>
      <path d="M50.8155 72.1555H35.2103V87.7704H50.8155V72.1555Z" fill="#BDE0D4"/>
      <path d="M66.4207 72.1555H50.8156V87.7704H66.4207V72.1555Z" fill="#83CBD0"/>
      <path d="M82.026 72.1555H66.4208V87.7704H82.026V72.1555Z" fill="#68BFE7"/>
      <path d="M50.8155 56.5406H35.2103V72.1555H50.8155V56.5406Z" fill="#0A92CF"/>
      <path d="M66.4207 56.5406H50.8156V72.1555H66.4207V56.5406Z" fill="#00B5DD"/>
      <path d="M82.026 56.5406H66.4208V72.1555H82.026V56.5406Z" fill="#36B3E2"/>
      <path d="M35.2104 56.5406H19.6052V72.1555H35.2104V56.5406Z" fill="#0A92CF"/>
      <path d="M47.5855 70.2519C60.7184 70.2519 71.3648 59.599 71.3648 46.4579C71.3648 33.3168 60.7184 22.6638 47.5855 22.6638C34.4525 22.6638 23.8062 33.3168 23.8062 46.4579C23.8062 59.599 34.4525 70.2519 47.5855 70.2519Z" fill="#0A92CF" stroke="#333333" stroke-width="5" stroke-miterlimit="10"/>
      <path d="M47.5856 56.0945C52.9044 56.0945 57.2162 51.78 57.2162 46.4579C57.2162 41.1357 52.9044 36.8213 47.5856 36.8213C42.2667 36.8213 37.955 41.1357 37.955 46.4579C37.955 51.78 42.2667 56.0945 47.5856 56.0945Z" fill="#252425"/>
      <path d="M51.5785 44.4849C52.6291 44.4849 53.4808 43.6327 53.4808 42.5814C53.4808 41.5301 52.6291 40.6779 51.5785 40.6779C50.5279 40.6779 49.6761 41.5301 49.6761 42.5814C49.6761 43.6327 50.5279 44.4849 51.5785 44.4849Z" fill="white"/>
      <path d="M87.0889 35.6812C78.6543 26.1212 67.7646 19.0547 55.601 15.2482C43.4375 11.4417 30.4645 11.0405 18.0892 14.0881L21.8345 9.62671C35.0982 6.41828 49.0066 7.12066 61.8801 11.6491C74.7536 16.1775 86.0417 24.3382 94.3812 35.1458L87.0889 35.6812Z" fill="#252425"/>
      <path d="M18.4162 38.7249L16.6328 45.6648C9.52025 33.3489 6.17197 19.2167 7.00217 5.0166L11.9562 0.0595093C10.7998 7.89942 11.1021 15.8857 12.8479 23.6156C14.057 28.8677 15.9281 33.9448 18.4162 38.7249Z" fill="#252425"/>
      <path d="M35.2104 87.7703H19.6052V103.385H35.2104V87.7703Z" fill="#9FD2CA"/>
      <path d="M50.8155 87.7703H35.2103V103.385H50.8155V87.7703Z" fill="#C5E4E3"/>
      <path d="M50.8155 103.385H35.2103V119H50.8155V103.385Z" fill="#36B3E2"/>
      <path d="M66.4207 87.7703H50.8156V103.385H66.4207V87.7703Z" fill="#88CFEF"/>
      <path d="M82.026 87.7703H66.4208V103.385H82.026V87.7703Z" fill="#0A92CF"/>
      <path d="M97.6311 87.7703H82.0259V103.385H97.6311V87.7703Z" fill="#BEE3EA"/>
      <path d="M113.236 72.1555H97.6311V87.7704H113.236V72.1555Z" fill="#68BFE7"/>
      <path d="M128.842 87.7703H113.236V103.385H128.842V87.7703Z" fill="#36B3E2"/>
      <path d="M53.134 80.7015V93.1934H51.0236V80.7015H53.134Z" fill="#231F20"/>
      <path d="M58.6231 92.9158C57.9025 92.6289 57.2702 92.157 56.7901 91.5476C56.3443 90.979 56.0848 90.2865 56.047 89.5648H58.2268C58.2563 89.8686 58.3513 90.1625 58.5052 90.4261C58.6592 90.6897 58.8684 90.9167 59.1185 91.0915C59.7395 91.5123 60.4797 91.721 61.2289 91.6864C61.9031 91.7218 62.5706 91.5374 63.1312 91.161C63.3472 91.0153 63.5241 90.819 63.6468 90.5892C63.7694 90.3593 63.8339 90.1029 63.8347 89.8424C63.8453 89.5871 63.7792 89.3345 63.645 89.1172C63.5108 88.8998 63.3146 88.7277 63.0817 88.6229C62.3494 88.2688 61.5778 88.0026 60.783 87.8298C59.9953 87.6425 59.2235 87.3939 58.4745 87.0862C57.8821 86.8427 57.3558 86.4622 56.9387 85.9758C56.4889 85.4164 56.2629 84.7097 56.3046 83.993C56.3053 83.3619 56.5065 82.7473 56.8793 82.2382C57.3078 81.675 57.8791 81.2368 58.5339 80.9692C59.306 80.6488 60.1355 80.4902 60.9713 80.5032C62.1977 80.4492 63.4051 80.8204 64.3896 81.5541C64.8168 81.9033 65.1631 82.3414 65.4043 82.8378C65.6455 83.3343 65.776 83.8773 65.7866 84.4292H63.6663C63.6557 84.1237 63.5784 83.8243 63.4398 83.552C63.3011 83.2796 63.1045 83.041 62.8637 82.8529C62.3073 82.4841 61.6589 82.2785 60.9918 82.2592C60.3247 82.2399 59.6655 82.4078 59.0888 82.7438C58.88 82.878 58.7087 83.063 58.5909 83.2815C58.4731 83.4999 58.4126 83.7447 58.415 83.993C58.4114 84.1772 58.4456 84.3603 58.5155 84.5308C58.5854 84.7013 58.6894 84.8557 58.8212 84.9844C59.1051 85.2634 59.442 85.4826 59.812 85.6289C60.2282 85.7875 60.8029 85.9659 61.5261 86.1642C62.2829 86.357 63.0274 86.5954 63.7555 86.878C64.322 87.1143 64.827 87.4772 65.2318 87.9388C65.6581 88.4609 65.8832 89.1188 65.8659 89.7928C65.8753 90.453 65.674 91.099 65.2912 91.6368C64.868 92.2059 64.3001 92.651 63.6465 92.9257C62.8782 93.2472 62.0516 93.4059 61.219 93.3916C60.3307 93.4066 59.4484 93.2448 58.6231 92.9158Z" fill="#231F20"/>
      <path d="M68.878 83.5369C69.3755 82.6001 70.1277 81.8233 71.0478 81.2963C71.9846 80.7573 73.0487 80.48 74.1292 80.4932C75.1431 80.4688 76.1452 80.7152 77.0323 81.2071C77.7964 81.6164 78.4312 82.231 78.8653 82.9817V80.7014H81.0054V93.1933H78.8653V90.8536C78.4135 91.6108 77.7712 92.2363 77.0025 92.6678C76.1182 93.1575 75.1199 93.4038 74.1094 93.3817C73.0294 93.3956 71.9665 93.1108 71.0379 92.5588C70.1179 92.0083 69.3699 91.2117 68.878 90.2587C68.3333 89.2202 68.0606 88.0605 68.0853 86.8879C68.0605 85.7216 68.3333 84.5683 68.878 83.5369ZM78.2906 84.4589C77.9257 83.7868 77.38 83.2304 76.7152 82.8528C76.0524 82.4823 75.3046 82.2909 74.5454 82.2976C73.7901 82.2873 73.0453 82.4753 72.3854 82.8429C71.727 83.2178 71.1878 83.7711 70.8298 84.4391C70.4272 85.1984 70.226 86.0484 70.2453 86.9077C70.2257 87.7734 70.4268 88.6299 70.8298 89.3962C71.1837 90.0748 71.7232 90.6388 72.3854 91.0221C73.0488 91.3866 73.7934 91.5777 74.5503 91.5777C75.3071 91.5777 76.0518 91.3866 76.7152 91.0221C77.3854 90.6426 77.9323 90.0782 78.2906 89.3962C78.6722 88.6257 78.8707 87.7775 78.8707 86.9176C78.8707 86.0578 78.6722 85.2095 78.2906 84.4391V84.4589Z" fill="#231F20"/>
      <path d="M102.555 81.0782C103.339 81.4926 103.978 82.1357 104.388 82.9222C104.871 83.8369 105.103 84.863 105.062 85.8965V93.2627H102.972V86.1939C103.044 85.1554 102.706 84.1299 102.03 83.3386C101.7 83.0025 101.302 82.7404 100.863 82.5695C100.424 82.3986 99.9542 82.3228 99.4839 82.3472C99.0013 82.3197 98.5183 82.3936 98.066 82.5644C97.6138 82.7351 97.2023 82.9989 96.8582 83.3386C96.1579 84.1656 95.8031 85.2308 95.8674 86.3129V93.1933H93.7769V86.1245C93.8362 85.0792 93.4801 84.0528 92.786 83.2692C92.4555 82.9336 92.0577 82.6718 91.6188 82.5009C91.18 82.3301 90.71 82.254 90.2397 82.2778C89.757 82.2496 89.2738 82.3233 88.8215 82.4941C88.3692 82.6649 87.9578 82.929 87.614 83.2692C86.9137 84.0962 86.5589 85.1614 86.6232 86.2435V93.1239H84.5128V80.632H86.6232V82.4364C87.0335 81.7869 87.6168 81.265 88.3076 80.9295C89.0359 80.5756 89.8363 80.3957 90.6459 80.404C91.6358 80.386 92.613 80.6288 93.4796 81.1079C94.3022 81.5821 94.9462 82.3136 95.3126 83.1899C95.6556 82.3252 96.2806 81.602 97.0861 81.1377C97.9152 80.6431 98.8655 80.389 99.8307 80.404C100.781 80.3936 101.719 80.6256 102.555 81.0782Z" fill="#231F20"/>
      <path d="M126.493 81.0783C127.276 81.4842 127.918 82.1164 128.336 82.8926C128.815 83.8086 129.047 84.8337 129.01 85.8668V93.2331H126.919V86.1642C126.992 85.1258 126.654 84.1002 125.978 83.309C125.647 82.9734 125.25 82.7116 124.811 82.5407C124.372 82.3698 123.902 82.2938 123.432 82.3176C122.949 82.2894 122.466 82.3631 122.013 82.5339C121.561 82.7047 121.15 82.9688 120.806 83.309C120.106 84.136 119.751 85.2012 119.815 86.2832V93.1637H117.725V86.0949C117.798 85.0564 117.459 84.0308 116.783 83.2396C116.453 82.9035 116.055 82.6413 115.616 82.4704C115.178 82.2995 114.707 82.2238 114.237 82.2482C113.754 82.2206 113.271 82.2946 112.819 82.4654C112.367 82.6361 111.955 82.8999 111.611 83.2396C110.911 84.0666 110.556 85.1318 110.621 86.2138V93.0943H108.51V80.6024H110.621V82.4068C111.035 81.7569 111.621 81.2351 112.315 80.8998C113.04 80.5458 113.837 80.3658 114.643 80.3744C115.633 80.355 116.611 80.5979 117.477 81.0783C118.3 81.5548 118.947 82.2852 119.32 83.1602C119.659 82.2963 120.281 81.5729 121.083 81.108C121.913 80.6134 122.863 80.3594 123.828 80.3744C124.761 80.383 125.677 80.625 126.493 81.0783Z" fill="#231F20"/>
    </g>
  </g>
  <defs>
    <filter id="filter0_d_103_4" x="0" y="0" width="133" height="127" filterUnits="userSpaceOnUse" color-interpolation-filters="sRGB">
      <feFlood flood-opacity="0" result="BackgroundImageFix"/>
      <feColorMatrix in="SourceAlpha" type="matrix" values="0 0 0 0 0 0 0 0 0 0 0 0 0 0 0 0 0 0 127 0" result="hardAlpha"/>
      <feOffset dy="4"/>
      <feGaussianBlur stdDeviation="2"/>
      <feComposite in2="hardAlpha" operator="out"/>
      <feColorMatrix type="matrix" values="0 0 0 0 0 0 0 0 0 0 0 0 0 0 0 0 0 0 0.25 0"/>
      <feBlend mode="normal" in2="BackgroundImageFix" result="effect1_dropShadow_103_4"/>
      <feBlend mode="normal" in="SourceGraphic" in2="effect1_dropShadow_103_4" result="shape"/>
    </filter>
    <clipPath id="clip0_103_4">
      <rect width="125" height="119" fill="white" transform="translate(4)"/>
    </clipPath>
  </defs>
</svg>
