<svg width="32" height="28" viewBox="0 0 32 28" fill="none" xmlns="http://www.w3.org/2000/svg">
<path d="M17.4972 0.802573C16.8165 0.284473 15.9522 0 15.0588 0C14.1654 0 13.3011 0.284473 12.6205 0.802573L1.32633 9.39751C0.910622 9.71393 0.576694 10.1075 0.347678 10.5509C0.118662 10.9943 3.04778e-05 11.477 0 11.9655V25.4071C0 26.0948 0.305106 26.7543 0.848198 27.2406C1.39129 27.7268 2.12788 28 2.89593 28H8.68778C9.45583 28 10.1924 27.7268 10.7355 27.2406C11.2786 26.7543 11.5837 26.0948 11.5837 25.4071V18.147C11.5837 18.0095 11.6447 17.8775 11.7533 17.7803C11.862 17.683 12.0093 17.6284 12.1629 17.6284H17.3756C17.5292 17.6284 17.6765 17.683 17.7851 17.7803C17.8937 17.8775 17.9548 18.0095 17.9548 18.147V25.4071C17.9548 26.0948 18.2599 26.7543 18.8029 27.2406C19.346 27.7268 20.0826 28 20.8507 28H27.2217C27.9898 28 28.7264 27.7268 29.2695 27.2406C29.8125 26.7543 30.1176 26.0948 30.1176 25.4071V11.9655C30.1176 11.477 29.999 10.9943 29.77 10.5509C29.541 10.1075 29.207 9.71393 28.7913 9.39751L17.4972 0.802573V0.802573Z" fill="white"/>
</svg>
