<svg width="77" height="77" viewBox="0 0 77 77" fill="none" xmlns="http://www.w3.org/2000/svg">
<path d="M67.2465 59.0334C64.1665 60.5734 60.0599 59.5467 58.0065 56.4667L52.3599 49.28H24.6399L18.9932 56.4667C16.4265 60.06 11.8065 60.5734 8.21322 58.0067C5.64655 55.9534 4.61988 52.8734 5.13322 50.3067L8.72655 31.3134C9.75322 25.1534 15.3999 20.5334 21.5599 20.5334H35.9332V12.8334C35.9332 8.7267 39.0132 5.13336 43.1199 5.13336H59.0332C60.5732 5.13336 61.5999 6.16003 61.5999 7.70003C61.5999 9.24003 60.5732 10.2667 59.0332 10.2667H43.6332C42.0932 10.2667 41.0665 11.2934 41.0665 12.32V20.5334H55.4399C61.5999 20.5334 67.2465 25.1534 68.2732 31.3134L71.8665 50.3067C72.3799 53.9 70.8399 57.4934 67.2465 59.0334ZM30.7999 33.3667C30.7999 29.26 27.2065 25.6667 23.0999 25.6667C18.9932 25.6667 15.3999 29.26 15.3999 33.3667C15.3999 37.4734 18.9932 41.0667 23.0999 41.0667C27.2065 41.0667 30.7999 37.4734 30.7999 33.3667ZM61.5999 33.3667C61.5999 31.8267 60.5732 30.8 59.0332 30.8H56.4665V28.2334C56.4665 26.6934 55.4399 25.6667 53.8999 25.6667C52.3599 25.6667 51.3332 26.6934 51.3332 28.2334V30.8H48.7665C47.2265 30.8 46.1999 31.8267 46.1999 33.3667C46.1999 34.9067 47.2265 35.9334 48.7665 35.9334H51.3332V38.5C51.3332 40.04 52.3599 41.0667 53.8999 41.0667C55.4399 41.0667 56.4665 40.04 56.4665 38.5V35.9334H59.0332C60.5732 35.9334 61.5999 34.9067 61.5999 33.3667Z" fill="url(#paint0_linear_150_2)"/>
<defs>
<linearGradient id="paint0_linear_150_2" x1="5.00488" y1="15.6348" x2="74.4206" y2="17.7424" gradientUnits="userSpaceOnUse">
<stop stop-color="#0A92CF"/>
<stop offset="1" stop-color="#8DCBCB"/>
</linearGradient>
</defs>
</svg>
