<svg xmlns="http://www.w3.org/2000/svg" width="375" viewBox="0 0 375 375" height="375" version="1.0"><defs><clipPath id="a"><path d="M 77.152344 5.671875 L 297.652344 5.671875 L 297.652344 226.171875 L 77.152344 226.171875 Z M 77.152344 5.671875"/></clipPath></defs><path fill="#C84648" d="M 251.496094 75.554688 C 251.667969 75.554688 251.832031 75.523438 251.988281 75.457031 C 252.144531 75.390625 252.285156 75.300781 252.40625 75.179688 C 252.523438 75.058594 252.617188 74.917969 252.683594 74.761719 C 252.75 74.605469 252.78125 74.441406 252.78125 74.269531 L 252.78125 68.21875 C 252.796875 68.042969 252.773438 67.867188 252.714844 67.695312 C 252.660156 67.527344 252.570312 67.375 252.445312 67.242188 C 252.324219 67.109375 252.183594 67.007812 252.019531 66.933594 C 251.851562 66.863281 251.679688 66.828125 251.5 66.828125 C 251.320312 66.828125 251.148438 66.863281 250.984375 66.933594 C 250.820312 67.007812 250.675781 67.109375 250.554688 67.242188 C 250.433594 67.375 250.34375 67.527344 250.285156 67.695312 C 250.226562 67.867188 250.207031 68.042969 250.222656 68.21875 L 250.222656 74.269531 C 250.222656 74.441406 250.253906 74.601562 250.316406 74.761719 C 250.382812 74.917969 250.472656 75.054688 250.59375 75.175781 C 250.714844 75.296875 250.851562 75.390625 251.007812 75.453125 C 251.164062 75.519531 251.328125 75.554688 251.496094 75.554688 Z M 251.496094 75.554688"/><path fill="#C84648" d="M 257.421875 75.121094 C 257.421875 74.199219 257.21875 73.320312 256.808594 72.492188 C 256.398438 71.664062 255.828125 70.96875 255.09375 70.410156 C 254.820312 70.199219 254.527344 70.167969 254.214844 70.320312 C 253.90625 70.472656 253.75 70.722656 253.75 71.070312 L 253.75 72.285156 C 253.75 72.503906 253.828125 72.691406 253.980469 72.847656 C 254.648438 73.566406 254.941406 74.414062 254.859375 75.390625 C 254.839844 75.65625 254.789062 75.917969 254.703125 76.171875 C 254.621094 76.425781 254.507812 76.667969 254.367188 76.894531 C 254.226562 77.121094 254.0625 77.328125 253.871094 77.515625 C 253.679688 77.703125 253.46875 77.867188 253.242188 78.003906 C 253.011719 78.144531 252.769531 78.25 252.511719 78.332031 C 252.257812 78.410156 251.996094 78.460938 251.730469 78.476562 C 251.460938 78.492188 251.199219 78.480469 250.933594 78.433594 C 250.671875 78.386719 250.414062 78.308594 250.171875 78.203125 C 249.925781 78.097656 249.695312 77.960938 249.484375 77.800781 C 249.269531 77.636719 249.078125 77.453125 248.910156 77.246094 C 248.742188 77.039062 248.597656 76.8125 248.484375 76.574219 C 248.367188 76.332031 248.28125 76.078125 248.226562 75.816406 C 248.171875 75.554688 248.148438 75.292969 248.15625 75.023438 C 248.164062 74.757812 248.207031 74.492188 248.277344 74.234375 C 248.347656 73.976562 248.449219 73.730469 248.578125 73.496094 C 248.707031 73.261719 248.863281 73.046875 249.042969 72.851562 C 249.195312 72.691406 249.273438 72.503906 249.277344 72.285156 L 249.277344 71.070312 C 249.277344 70.726562 249.125 70.476562 248.816406 70.324219 C 248.511719 70.167969 248.21875 70.195312 247.945312 70.398438 C 247.746094 70.550781 247.554688 70.714844 247.375 70.890625 C 247.195312 71.066406 247.027344 71.25 246.871094 71.449219 C 246.71875 71.644531 246.574219 71.851562 246.445312 72.066406 C 246.316406 72.28125 246.199219 72.503906 246.097656 72.734375 C 245.996094 72.964844 245.910156 73.199219 245.839844 73.441406 C 245.769531 73.679688 245.710938 73.925781 245.671875 74.171875 C 245.632812 74.421875 245.605469 74.671875 245.597656 74.921875 C 245.589844 75.171875 245.597656 75.425781 245.621094 75.675781 C 245.644531 75.925781 245.683594 76.171875 245.738281 76.417969 C 245.792969 76.660156 245.863281 76.902344 245.949219 77.140625 C 246.035156 77.375 246.132812 77.605469 246.25 77.828125 C 246.363281 78.050781 246.492188 78.265625 246.632812 78.472656 C 246.777344 78.679688 246.929688 78.878906 247.097656 79.066406 C 247.265625 79.253906 247.445312 79.429688 247.632812 79.59375 C 247.824219 79.757812 248.023438 79.910156 248.230469 80.050781 C 248.441406 80.191406 248.65625 80.316406 248.882812 80.429688 C 249.105469 80.539062 249.335938 80.636719 249.574219 80.71875 C 249.8125 80.800781 250.054688 80.867188 250.300781 80.921875 C 250.546875 80.972656 250.792969 81.007812 251.042969 81.027344 C 251.292969 81.050781 251.542969 81.054688 251.796875 81.042969 C 252.046875 81.03125 252.296875 81.003906 252.542969 80.957031 C 252.789062 80.914062 253.035156 80.855469 253.273438 80.78125 C 253.511719 80.707031 253.746094 80.617188 253.976562 80.515625 C 254.203125 80.410156 254.425781 80.292969 254.640625 80.160156 C 254.851562 80.027344 255.058594 79.882812 255.253906 79.722656 C 255.449219 79.566406 255.632812 79.394531 255.804688 79.214844 C 255.976562 79.03125 256.140625 78.839844 256.289062 78.636719 C 256.4375 78.433594 256.574219 78.222656 256.695312 78.003906 C 256.816406 77.785156 256.925781 77.558594 257.019531 77.324219 C 257.113281 77.09375 257.191406 76.855469 257.253906 76.613281 C 257.316406 76.367188 257.363281 76.121094 257.394531 75.871094 C 257.429688 75.625 257.445312 75.375 257.445312 75.121094 Z M 257.421875 75.121094"/><path fill="#C84648" d="M 246.175781 90.21875 C 246.53125 90.21875 246.875 90.289062 247.203125 90.421875 C 247.53125 90.558594 247.820312 90.753906 248.074219 91.007812 C 248.324219 91.257812 248.519531 91.546875 248.65625 91.878906 C 248.792969 92.207031 248.859375 92.546875 248.859375 92.90625 L 248.859375 136.550781 C 248.859375 136.90625 248.792969 137.25 248.65625 137.578125 C 248.519531 137.90625 248.324219 138.195312 248.074219 138.449219 C 247.824219 138.699219 247.53125 138.894531 247.203125 139.03125 C 246.875 139.164062 246.53125 139.234375 246.175781 139.234375 C 245.820312 139.234375 245.476562 139.167969 245.148438 139.03125 C 244.816406 138.898438 244.527344 138.703125 244.273438 138.453125 C 244.019531 138.199219 243.824219 137.910156 243.6875 137.578125 C 243.550781 137.25 243.484375 136.90625 243.480469 136.550781 L 243.480469 92.902344 C 243.484375 92.546875 243.550781 92.203125 243.6875 91.875 C 243.824219 91.542969 244.019531 91.253906 244.273438 91.003906 C 244.523438 90.75 244.816406 90.558594 245.144531 90.421875 C 245.476562 90.285156 245.816406 90.21875 246.175781 90.21875 Z M 246.175781 90.21875"/><path fill="#C84648" d="M 256.066406 90.21875 C 256.421875 90.21875 256.765625 90.289062 257.09375 90.421875 C 257.421875 90.558594 257.714844 90.753906 257.964844 91.007812 C 258.21875 91.257812 258.410156 91.546875 258.546875 91.878906 C 258.683594 92.207031 258.75 92.546875 258.75 92.90625 L 258.75 136.546875 C 258.75 136.90625 258.683594 137.246094 258.546875 137.578125 C 258.410156 137.90625 258.21875 138.195312 257.964844 138.449219 C 257.714844 138.699219 257.421875 138.894531 257.09375 139.03125 C 256.765625 139.164062 256.421875 139.234375 256.066406 139.234375 C 255.710938 139.234375 255.371094 139.164062 255.039062 139.03125 C 254.710938 138.894531 254.421875 138.699219 254.167969 138.449219 C 253.917969 138.195312 253.722656 137.90625 253.585938 137.578125 C 253.453125 137.246094 253.382812 136.90625 253.382812 136.546875 L 253.382812 92.90625 C 253.382812 92.546875 253.453125 92.207031 253.585938 91.878906 C 253.722656 91.546875 253.917969 91.257812 254.167969 91.007812 C 254.421875 90.753906 254.710938 90.558594 255.039062 90.421875 C 255.371094 90.289062 255.710938 90.21875 256.066406 90.21875 Z M 256.066406 90.21875"/><g clip-path="url(#a)"><path fill="#C84648" d="M 187.402344 5.664062 C 126.511719 5.664062 77.152344 55.027344 77.152344 115.917969 C 77.152344 176.808594 126.511719 226.167969 187.402344 226.167969 C 248.292969 226.167969 297.65625 176.808594 297.65625 115.917969 C 297.65625 55.027344 248.292969 5.664062 187.402344 5.664062 Z M 108.519531 76.726562 C 108.519531 76.066406 108.585938 75.414062 108.714844 74.765625 C 108.84375 74.121094 109.035156 73.492188 109.289062 72.882812 C 109.542969 72.273438 109.851562 71.695312 110.21875 71.148438 C 110.585938 70.597656 111 70.089844 111.46875 69.625 C 111.933594 69.160156 112.441406 68.742188 112.988281 68.375 C 113.539062 68.011719 114.117188 67.699219 114.726562 67.449219 C 115.335938 67.195312 115.964844 67.003906 116.609375 66.875 C 117.257812 66.746094 117.910156 66.683594 118.570312 66.683594 L 222.234375 66.683594 C 222.894531 66.683594 223.546875 66.746094 224.195312 66.875 C 224.84375 67.003906 225.46875 67.195312 226.082031 67.449219 C 226.691406 67.699219 227.269531 68.011719 227.820312 68.378906 C 228.367188 68.742188 228.875 69.160156 229.34375 69.628906 C 229.808594 70.09375 230.226562 70.601562 230.59375 71.152344 C 230.960938 71.699219 231.269531 72.28125 231.523438 72.890625 C 231.773438 73.5 231.964844 74.128906 232.09375 74.777344 C 232.222656 75.421875 232.289062 76.078125 232.289062 76.738281 L 232.289062 138.734375 C 232.289062 139.394531 232.222656 140.050781 232.09375 140.699219 C 231.964844 141.34375 231.773438 141.972656 231.519531 142.585938 C 231.269531 143.195312 230.957031 143.773438 230.589844 144.324219 C 230.222656 144.871094 229.808594 145.378906 229.339844 145.847656 C 228.875 146.3125 228.367188 146.730469 227.816406 147.097656 C 227.269531 147.464844 226.6875 147.773438 226.078125 148.023438 C 225.46875 148.277344 224.839844 148.46875 224.195312 148.597656 C 223.546875 148.726562 222.894531 148.789062 222.234375 148.789062 L 118.570312 148.789062 C 117.910156 148.789062 117.257812 148.726562 116.609375 148.597656 C 115.960938 148.464844 115.332031 148.277344 114.722656 148.023438 C 114.113281 147.769531 113.535156 147.460938 112.984375 147.09375 C 112.4375 146.726562 111.929688 146.308594 111.464844 145.84375 C 110.996094 145.375 110.582031 144.867188 110.214844 144.320312 C 109.847656 143.769531 109.539062 143.191406 109.285156 142.582031 C 109.03125 141.972656 108.84375 141.34375 108.714844 140.695312 C 108.585938 140.050781 108.519531 139.394531 108.519531 138.734375 Z M 184.078125 157.5625 L 184.078125 160.421875 C 184.078125 160.90625 183.984375 161.375 183.800781 161.824219 C 183.613281 162.269531 183.351562 162.667969 183.007812 163.011719 C 182.664062 163.355469 182.269531 163.617188 181.820312 163.804688 C 181.375 163.992188 180.90625 164.085938 180.421875 164.085938 L 160.386719 164.085938 C 159.902344 164.085938 159.433594 163.992188 158.984375 163.808594 C 158.539062 163.621094 158.140625 163.355469 157.796875 163.011719 C 157.453125 162.667969 157.191406 162.273438 157.003906 161.824219 C 156.816406 161.375 156.726562 160.910156 156.726562 160.421875 L 156.726562 157.5625 C 156.726562 157.101562 156.769531 156.648438 156.859375 156.199219 C 156.949219 155.75 157.082031 155.3125 157.257812 154.890625 C 157.433594 154.464844 157.648438 154.0625 157.902344 153.683594 C 158.15625 153.300781 158.445312 152.949219 158.769531 152.625 C 159.09375 152.300781 159.445312 152.011719 159.828125 151.757812 C 160.207031 151.5 160.609375 151.285156 161.035156 151.113281 C 161.457031 150.9375 161.894531 150.804688 162.34375 150.714844 C 162.792969 150.625 163.246094 150.578125 163.707031 150.578125 L 177.097656 150.578125 C 177.554688 150.578125 178.007812 150.625 178.460938 150.714844 C 178.910156 150.804688 179.34375 150.9375 179.769531 151.113281 C 180.191406 151.285156 180.59375 151.5 180.976562 151.757812 C 181.355469 152.011719 181.710938 152.300781 182.035156 152.625 C 182.359375 152.949219 182.648438 153.300781 182.902344 153.683594 C 183.15625 154.0625 183.371094 154.464844 183.546875 154.890625 C 183.722656 155.3125 183.855469 155.75 183.945312 156.199219 C 184.035156 156.648438 184.078125 157.101562 184.078125 157.5625 Z M 193.351562 178.222656 L 109.558594 178.222656 C 108.859375 178.222656 108.375 177.316406 108.554688 176.398438 L 109.882812 169.605469 C 110.003906 168.980469 110.417969 168.542969 110.886719 168.542969 L 192.023438 168.542969 C 192.488281 168.542969 192.902344 168.980469 193.027344 169.605469 L 194.355469 176.398438 C 194.535156 177.316406 194.039062 178.222656 193.351562 178.222656 Z M 212.382812 175.066406 C 212.382812 175.238281 212.324219 175.386719 212.199219 175.511719 C 212.078125 175.632812 211.929688 175.695312 211.757812 175.695312 L 201.75 175.695312 C 201.578125 175.695312 201.429688 175.632812 201.308594 175.511719 C 201.183594 175.386719 201.121094 175.238281 201.121094 175.066406 L 201.121094 173.832031 C 201.125 173.328125 201.21875 172.847656 201.414062 172.382812 C 201.605469 171.917969 201.878906 171.507812 202.234375 171.152344 C 202.589844 170.796875 203 170.519531 203.464844 170.328125 C 203.929688 170.136719 204.414062 170.039062 204.917969 170.039062 L 208.597656 170.039062 C 209.101562 170.039062 209.585938 170.136719 210.050781 170.328125 C 210.515625 170.519531 210.925781 170.796875 211.28125 171.152344 C 211.636719 171.507812 211.910156 171.917969 212.101562 172.382812 C 212.296875 172.847656 212.390625 173.328125 212.390625 173.832031 Z M 257.246094 161.855469 L 214.765625 161.855469 C 214.171875 161.855469 213.582031 161.796875 213 161.679688 C 212.417969 161.5625 211.851562 161.394531 211.304688 161.164062 C 210.757812 160.9375 210.234375 160.660156 209.742188 160.328125 C 209.246094 160 208.789062 159.625 208.371094 159.203125 C 207.949219 158.785156 207.574219 158.328125 207.246094 157.835938 C 206.917969 157.339844 206.636719 156.820312 206.410156 156.269531 C 206.183594 155.722656 206.011719 155.15625 205.898438 154.574219 C 205.78125 153.992188 205.722656 153.402344 205.722656 152.808594 L 205.722656 152.34375 L 226.960938 152.34375 C 227.554688 152.34375 228.144531 152.285156 228.726562 152.171875 C 229.308594 152.054688 229.875 151.882812 230.421875 151.65625 C 230.972656 151.429688 231.492188 151.148438 231.984375 150.820312 C 232.480469 150.488281 232.9375 150.113281 233.355469 149.695312 C 233.777344 149.273438 234.152344 148.816406 234.480469 148.324219 C 234.8125 147.832031 235.089844 147.308594 235.316406 146.761719 C 235.542969 146.210938 235.714844 145.644531 235.832031 145.0625 C 235.949219 144.480469 236.007812 143.894531 236.007812 143.300781 L 236.007812 71.582031 C 236.007812 70.988281 235.949219 70.402344 235.832031 69.820312 C 235.714844 69.234375 235.542969 68.671875 235.316406 68.121094 C 235.089844 67.574219 234.8125 67.050781 234.480469 66.558594 C 234.152344 66.0625 233.777344 65.605469 233.355469 65.1875 C 232.9375 64.765625 232.480469 64.390625 231.984375 64.0625 C 231.492188 63.734375 230.972656 63.453125 230.421875 63.226562 C 229.875 63 229.308594 62.828125 228.726562 62.710938 C 228.144531 62.597656 227.554688 62.539062 226.960938 62.539062 L 205.726562 62.539062 C 205.734375 61.949219 205.796875 61.367188 205.917969 60.789062 C 206.039062 60.214844 206.214844 59.65625 206.445312 59.113281 C 206.679688 58.570312 206.957031 58.058594 207.289062 57.570312 C 207.621094 57.082031 207.996094 56.632812 208.414062 56.21875 C 208.832031 55.804688 209.289062 55.4375 209.78125 55.113281 C 210.269531 54.785156 210.789062 54.511719 211.332031 54.289062 C 211.878906 54.066406 212.4375 53.898438 213.015625 53.78125 C 213.59375 53.667969 214.175781 53.613281 214.765625 53.613281 L 257.246094 53.613281 C 257.839844 53.613281 258.429688 53.671875 259.011719 53.785156 C 259.59375 53.902344 260.15625 54.074219 260.707031 54.300781 C 261.253906 54.53125 261.773438 54.808594 262.269531 55.136719 C 262.761719 55.46875 263.21875 55.84375 263.640625 56.261719 C 264.058594 56.683594 264.433594 57.140625 264.761719 57.632812 C 265.09375 58.128906 265.371094 58.648438 265.597656 59.195312 C 265.824219 59.746094 265.996094 60.3125 266.113281 60.894531 C 266.226562 61.476562 266.285156 62.0625 266.285156 62.65625 L 266.285156 152.800781 C 266.285156 153.394531 266.230469 153.984375 266.113281 154.566406 C 266 155.148438 265.828125 155.714844 265.601562 156.265625 C 265.375 156.8125 265.09375 157.335938 264.765625 157.828125 C 264.4375 158.324219 264.0625 158.78125 263.640625 159.199219 C 263.222656 159.621094 262.765625 159.996094 262.269531 160.328125 C 261.777344 160.65625 261.257812 160.9375 260.707031 161.164062 C 260.160156 161.390625 259.59375 161.5625 259.011719 161.679688 C 258.429688 161.796875 257.839844 161.855469 257.246094 161.855469 Z M 257.246094 161.855469"/></g><g fill="#C84648"><g><g><path d="M 6.140625 -51.78125 L 18.125 -51.78125 L 18.125 0 L 6.140625 0 Z M 6.140625 -51.78125" transform="translate(38.766 316.199)"/></g></g></g><g fill="#C84648"><g><g><path d="M 23.15625 0.890625 C 19.0625 0.890625 15.101562 0.335938 11.28125 -0.765625 C 7.457031 -1.878906 4.390625 -3.328125 2.078125 -5.109375 L 6.140625 -14.125 C 8.359375 -12.5 10.992188 -11.191406 14.046875 -10.203125 C 17.109375 -9.222656 20.164062 -8.734375 23.21875 -8.734375 C 26.625 -8.734375 29.140625 -9.238281 30.765625 -10.25 C 32.398438 -11.257812 33.21875 -12.601562 33.21875 -14.28125 C 33.21875 -15.507812 32.734375 -16.53125 31.765625 -17.34375 C 30.804688 -18.15625 29.570312 -18.804688 28.0625 -19.296875 C 26.5625 -19.796875 24.53125 -20.34375 21.96875 -20.9375 C 18.019531 -21.875 14.785156 -22.8125 12.265625 -23.75 C 9.753906 -24.6875 7.597656 -26.1875 5.796875 -28.25 C 4.003906 -30.320312 3.109375 -33.085938 3.109375 -36.546875 C 3.109375 -39.546875 3.921875 -42.265625 5.546875 -44.703125 C 7.171875 -47.148438 9.625 -49.085938 12.90625 -50.515625 C 16.1875 -51.953125 20.191406 -52.671875 24.921875 -52.671875 C 28.234375 -52.671875 31.460938 -52.273438 34.609375 -51.484375 C 37.765625 -50.691406 40.53125 -49.554688 42.90625 -48.078125 L 39.203125 -38.984375 C 34.421875 -41.691406 29.640625 -43.046875 24.859375 -43.046875 C 21.503906 -43.046875 19.023438 -42.503906 17.421875 -41.421875 C 15.816406 -40.335938 15.015625 -38.90625 15.015625 -37.125 C 15.015625 -35.351562 15.9375 -34.035156 17.78125 -33.171875 C 19.632812 -32.304688 22.460938 -31.457031 26.265625 -30.625 C 30.203125 -29.6875 33.425781 -28.75 35.9375 -27.8125 C 38.457031 -26.875 40.617188 -25.394531 42.421875 -23.375 C 44.222656 -21.351562 45.125 -18.613281 45.125 -15.15625 C 45.125 -12.195312 44.296875 -9.5 42.640625 -7.0625 C 40.992188 -4.625 38.515625 -2.6875 35.203125 -1.25 C 31.898438 0.175781 27.882812 0.890625 23.15625 0.890625 Z M 23.15625 0.890625" transform="translate(70.051 316.199)"/></g></g></g><g fill="#C84648"><g><g><path d="M 40.234375 -11.09375 L 16.203125 -11.09375 L 11.609375 0 L -0.671875 0 L 22.40625 -51.78125 L 34.25 -51.78125 L 57.40625 0 L 44.828125 0 Z M 36.46875 -20.1875 L 28.25 -40.015625 L 20.046875 -20.1875 Z M 36.46875 -20.1875" transform="translate(124.263 316.199)"/></g></g></g><g fill="#C84648"><g><g><path d="M 53.25 0 L 53.1875 -31.0625 L 37.953125 -5.46875 L 32.546875 -5.46875 L 17.375 -30.40625 L 17.375 0 L 6.140625 0 L 6.140625 -51.78125 L 16.046875 -51.78125 L 35.4375 -19.609375 L 54.515625 -51.78125 L 64.359375 -51.78125 L 64.5 0 Z M 53.25 0" transform="translate(187.942 316.199)"/></g></g></g><g fill="#C84648"><g><g><path d="M 53.25 0 L 53.1875 -31.0625 L 37.953125 -5.46875 L 32.546875 -5.46875 L 17.375 -30.40625 L 17.375 0 L 6.140625 0 L 6.140625 -51.78125 L 16.046875 -51.78125 L 35.4375 -19.609375 L 54.515625 -51.78125 L 64.359375 -51.78125 L 64.5 0 Z M 53.25 0" transform="translate(265.598 316.199)"/></g></g></g><g fill="#4B4B4B"><g><g><path d="M 2.546875 -21.53125 L 7.53125 -21.53125 L 7.53125 -4.0625 L 18.328125 -4.0625 L 18.328125 0 L 2.546875 0 Z M 2.546875 -21.53125" transform="translate(134.754 362.714)"/></g></g></g><g fill="#4B4B4B"><g><g><path d="M 16.734375 -4.609375 L 6.734375 -4.609375 L 4.828125 0 L -0.28125 0 L 9.3125 -21.53125 L 14.234375 -21.53125 L 23.859375 0 L 18.640625 0 Z M 15.15625 -8.390625 L 11.75 -16.640625 L 8.328125 -8.390625 Z M 15.15625 -8.390625" transform="translate(160.063 362.714)"/></g></g></g><g fill="#4B4B4B"><g><g><path d="M 18.359375 -11.1875 C 19.585938 -10.800781 20.550781 -10.148438 21.25 -9.234375 C 21.945312 -8.328125 22.296875 -7.207031 22.296875 -5.875 C 22.296875 -3.988281 21.5625 -2.535156 20.09375 -1.515625 C 18.625 -0.503906 16.488281 0 13.6875 0 L 2.546875 0 L 2.546875 -21.53125 L 13.0625 -21.53125 C 15.6875 -21.53125 17.703125 -21.023438 19.109375 -20.015625 C 20.515625 -19.015625 21.21875 -17.648438 21.21875 -15.921875 C 21.21875 -14.878906 20.960938 -13.945312 20.453125 -13.125 C 19.953125 -12.3125 19.253906 -11.664062 18.359375 -11.1875 Z M 7.5 -17.78125 L 7.5 -12.703125 L 12.453125 -12.703125 C 13.679688 -12.703125 14.613281 -12.914062 15.25 -13.34375 C 15.882812 -13.769531 16.203125 -14.40625 16.203125 -15.25 C 16.203125 -16.09375 15.882812 -16.722656 15.25 -17.140625 C 14.613281 -17.566406 13.679688 -17.78125 12.453125 -17.78125 Z M 13.3125 -3.75 C 14.625 -3.75 15.613281 -3.960938 16.28125 -4.390625 C 16.945312 -4.828125 17.28125 -5.492188 17.28125 -6.390625 C 17.28125 -8.179688 15.957031 -9.078125 13.3125 -9.078125 L 7.5 -9.078125 L 7.5 -3.75 Z M 13.3125 -3.75" transform="translate(190.353 362.714)"/></g></g></g><g fill="#4B4B4B"><g><g><path d="M 9.625 0.375 C 7.925781 0.375 6.28125 0.144531 4.6875 -0.3125 C 3.101562 -0.78125 1.828125 -1.382812 0.859375 -2.125 L 2.546875 -5.875 C 3.472656 -5.195312 4.570312 -4.648438 5.84375 -4.234375 C 7.113281 -3.828125 8.382812 -3.625 9.65625 -3.625 C 11.070312 -3.625 12.117188 -3.832031 12.796875 -4.25 C 13.472656 -4.675781 13.8125 -5.238281 13.8125 -5.9375 C 13.8125 -6.445312 13.609375 -6.867188 13.203125 -7.203125 C 12.804688 -7.546875 12.296875 -7.816406 11.671875 -8.015625 C 11.046875 -8.222656 10.195312 -8.453125 9.125 -8.703125 C 7.488281 -9.085938 6.144531 -9.472656 5.09375 -9.859375 C 4.050781 -10.253906 3.15625 -10.878906 2.40625 -11.734375 C 1.664062 -12.597656 1.296875 -13.75 1.296875 -15.1875 C 1.296875 -16.4375 1.632812 -17.566406 2.3125 -18.578125 C 2.988281 -19.597656 4.003906 -20.40625 5.359375 -21 C 6.722656 -21.59375 8.390625 -21.890625 10.359375 -21.890625 C 11.734375 -21.890625 13.078125 -21.722656 14.390625 -21.390625 C 15.703125 -21.066406 16.847656 -20.597656 17.828125 -19.984375 L 16.296875 -16.203125 C 14.304688 -17.328125 12.316406 -17.890625 10.328125 -17.890625 C 8.929688 -17.890625 7.898438 -17.664062 7.234375 -17.21875 C 6.578125 -16.769531 6.25 -16.175781 6.25 -15.4375 C 6.25 -14.695312 6.628906 -14.144531 7.390625 -13.78125 C 8.160156 -13.425781 9.335938 -13.078125 10.921875 -12.734375 C 12.554688 -12.335938 13.894531 -11.945312 14.9375 -11.5625 C 15.988281 -11.175781 16.882812 -10.5625 17.625 -9.71875 C 18.375 -8.875 18.75 -7.734375 18.75 -6.296875 C 18.75 -5.066406 18.40625 -3.945312 17.71875 -2.9375 C 17.039062 -1.925781 16.015625 -1.117188 14.640625 -0.515625 C 13.265625 0.078125 11.59375 0.375 9.625 0.375 Z M 9.625 0.375" transform="translate(220.612 362.714)"/></g></g></g></svg>