<svg width="68" height="68" viewBox="0 0 68 68" fill="none" xmlns="http://www.w3.org/2000/svg">
<path d="M31.875 14.875C29.495 14.875 27.2722 15.5253 25.3725 16.66C25.1677 14.4806 24.4701 12.3762 23.3325 10.506C26.0878 9.12993 29.1347 8.43962 32.2141 8.4938C35.2934 8.54797 38.3141 9.34503 41.0194 10.8172C43.7246 12.2893 46.0342 14.393 47.7519 16.9494C49.4696 19.5057 50.5445 22.4391 50.8852 25.5H56.3168C60.4223 25.5 63.7543 28.832 63.7543 32.9375V52.0625C63.7543 53.0396 63.5617 54.0071 63.1877 54.9097C62.8137 55.8123 62.2654 56.6324 61.5744 57.3231C60.8833 58.0138 60.0629 58.5616 59.16 58.9351C58.2572 59.3086 57.2896 59.5006 56.3125 59.5H37.1875C35.215 59.5 33.3232 58.7164 31.9284 57.3216C30.5336 55.9268 29.75 54.0351 29.75 52.0625V46.6353C28.2767 46.4718 26.8275 46.1366 25.432 45.6365C25.4745 44.6335 25.5 43.588 25.5 42.5V42.16C25.5 41.14 25.5 39.9373 25.4575 38.6453C26.782 39.421 28.2365 39.9495 29.75 40.205V32.9375C29.75 28.832 33.082 25.5 37.1875 25.5H44.4507C43.9485 22.5284 42.4097 19.8307 40.1076 17.8857C37.8055 15.9407 34.8888 14.874 31.875 14.875V14.875ZM50.5282 31.875C49.7251 35.3874 47.9476 38.6021 45.3999 41.1499C42.8521 43.6976 39.6374 45.4751 36.125 46.2783V52.0625C36.125 52.649 36.601 53.125 37.1875 53.125H56.3125C56.5943 53.125 56.8645 53.0131 57.0638 52.8138C57.2631 52.6146 57.375 52.3443 57.375 52.0625V32.9375C57.375 32.6557 57.2631 32.3855 57.0638 32.1862C56.8645 31.987 56.5943 31.875 56.3125 31.875H50.5282ZM43.8983 31.875H37.1875C36.9057 31.875 36.6355 31.987 36.4362 32.1862C36.2369 32.3855 36.125 32.6557 36.125 32.9375V39.6525C37.9185 39.0167 39.5474 37.9885 40.893 36.643C42.2385 35.2974 43.2667 33.6685 43.9025 31.875H43.8983ZM15.2193 4.78126C15.572 5.08982 15.8129 5.50634 15.9043 5.966C15.9958 6.42566 15.9328 6.90266 15.725 7.32276C15.689 7.4471 15.6704 7.57582 15.6698 7.70526C15.6698 7.97301 15.7378 8.48301 16.3795 9.12051C16.6898 9.43076 16.9278 9.65176 17.187 9.89401C17.3995 10.0895 17.6248 10.2935 17.9095 10.574C18.462 11.101 19.0443 11.7215 19.567 12.4993C20.6508 14.127 21.25 16.1628 21.25 19.125C21.25 22.661 19.975 25.6828 17.969 27.591C19.21 28.849 19.9325 30.4938 20.3788 32.1385C21.25 35.3345 21.25 39.287 21.25 42.3428V42.5C21.25 51.2465 19.6137 56.44 17.7607 59.5298C17.0607 60.7464 16.1414 61.8228 15.0492 62.7045C14.6167 63.0419 14.146 63.3272 13.6467 63.5545C13.6467 63.5545 13.107 63.75 12.75 63.75C12.4436 63.7257 12.142 63.6599 11.8533 63.5545C11.354 63.3272 10.8833 63.0419 10.4508 62.7045C9.35862 61.8228 8.43927 60.7464 7.73925 59.5298C5.88625 56.4443 4.25 51.2465 4.25 42.5V42.347C4.25 39.287 4.25 35.3388 5.12125 32.1343C5.5675 30.4938 6.29 28.849 7.531 27.5868C5.525 25.687 4.25 22.661 4.25 19.125C4.25 17.7395 4.61975 16.0863 5.12975 14.5605C5.63975 13.0305 6.35375 11.4495 7.17825 10.1745C8.16 8.51701 9.54125 7.12726 10.6122 6.19226C11.1994 5.67587 11.8122 5.18934 12.4482 4.73451L12.5758 4.64951L12.614 4.61976L12.6267 4.61126L12.6353 4.60701C13.025 4.34724 13.4896 4.22349 13.9569 4.255C14.4242 4.28651 14.8679 4.47152 15.2193 4.78126V4.78126Z" fill="url(#paint0_linear_150_6)"/>
<defs>
<linearGradient id="paint0_linear_150_6" x1="4.25" y1="15.6925" x2="65.9575" y2="17.2205" gradientUnits="userSpaceOnUse">
<stop stop-color="#0A92CF"/>
<stop offset="1" stop-color="#8DCBCB"/>
</linearGradient>
</defs>
</svg>
