<svg width="67" height="55" viewBox="0 0 67 55" fill="none" xmlns="http://www.w3.org/2000/svg">
<path d="M33.5 3.4375C33.5 2.52582 33.9412 1.65148 34.7265 1.00682C35.5118 0.362164 36.5769 0 37.6875 0L62.8125 0C63.9231 0 64.9882 0.362164 65.7735 1.00682C66.5588 1.65148 67 2.52582 67 3.4375V51.5625C67 52.4742 66.5588 53.3485 65.7735 53.9932C64.9882 54.6378 63.9231 55 62.8125 55H37.6875C36.5769 55 35.5118 54.6378 34.7265 53.9932C33.9412 53.3485 33.5 52.4742 33.5 51.5625V3.4375ZM37.6875 49.8438C37.6875 50.2996 37.9081 50.7368 38.3007 51.0591C38.6934 51.3814 39.226 51.5625 39.7812 51.5625C40.3365 51.5625 40.8691 51.3814 41.2618 51.0591C41.6544 50.7368 41.875 50.2996 41.875 49.8438C41.875 49.3879 41.6544 48.9507 41.2618 48.6284C40.8691 48.3061 40.3365 48.125 39.7812 48.125C39.226 48.125 38.6934 48.3061 38.3007 48.6284C37.9081 48.9507 37.6875 49.3879 37.6875 49.8438ZM46.0625 49.8438C46.0625 50.2996 46.2831 50.7368 46.6757 51.0591C47.0684 51.3814 47.601 51.5625 48.1562 51.5625C48.7115 51.5625 49.2441 51.3814 49.6368 51.0591C50.0294 50.7368 50.25 50.2996 50.25 49.8438C50.25 49.3879 50.0294 48.9507 49.6368 48.6284C49.2441 48.3061 48.7115 48.125 48.1562 48.125C47.601 48.125 47.0684 48.3061 46.6757 48.6284C46.2831 48.9507 46.0625 49.3879 46.0625 49.8438ZM39.7812 3.4375C39.226 3.4375 38.6934 3.61858 38.3007 3.94091C37.9081 4.26324 37.6875 4.70041 37.6875 5.15625C37.6875 5.61209 37.9081 6.04926 38.3007 6.37159C38.6934 6.69392 39.226 6.875 39.7812 6.875H60.7188C61.274 6.875 61.8066 6.69392 62.1993 6.37159C62.5919 6.04926 62.8125 5.61209 62.8125 5.15625C62.8125 4.70041 62.5919 4.26324 62.1993 3.94091C61.8066 3.61858 61.274 3.4375 60.7188 3.4375H39.7812ZM37.6875 12.0312C37.6875 12.4871 37.9081 12.9243 38.3007 13.2466C38.6934 13.5689 39.226 13.75 39.7812 13.75H60.7188C61.274 13.75 61.8066 13.5689 62.1993 13.2466C62.5919 12.9243 62.8125 12.4871 62.8125 12.0312C62.8125 11.5754 62.5919 11.1382 62.1993 10.8159C61.8066 10.4936 61.274 10.3125 60.7188 10.3125H39.7812C39.226 10.3125 38.6934 10.4936 38.3007 10.8159C37.9081 11.1382 37.6875 11.5754 37.6875 12.0312ZM6.28125 6.875C4.61536 6.875 3.0177 7.41825 1.83974 8.38523C0.661773 9.35222 0 10.6637 0 12.0312L0 36.0938C0 37.4613 0.661773 38.7728 1.83974 39.7398C3.0177 40.7068 4.61536 41.25 6.28125 41.25H25.125V48.125H23.0312C22.476 48.125 21.9434 48.3061 21.5507 48.6284C21.1581 48.9507 20.9375 49.3879 20.9375 49.8438C20.9375 50.2996 21.1581 50.7368 21.5507 51.0591C21.9434 51.3814 22.476 51.5625 23.0312 51.5625H29.3125V37.8125H6.28125C5.72595 37.8125 5.1934 37.6314 4.80075 37.3091C4.40809 36.9868 4.1875 36.5496 4.1875 36.0938V12.0312C4.1875 11.5754 4.40809 11.1382 4.80075 10.8159C5.1934 10.4936 5.72595 10.3125 6.28125 10.3125H29.3125V6.875H6.28125Z" fill="url(#paint0_linear_188_4)"/>
<defs>
<linearGradient id="paint0_linear_188_4" x1="-2.6506e-07" y1="10.5769" x2="69.4602" y2="12.6721" gradientUnits="userSpaceOnUse">
<stop stop-color="#0A92CF"/>
<stop offset="1" stop-color="#8DCBCB"/>
</linearGradient>
</defs>
</svg>
